<?xml version="1.0" encoding="UTF-8" standalone="no"?>
<svg
   style="font-style:normal;font-weight:normal;font-size:12px;font-family:Dialog;color-interpolation:auto;fill:#000000;fill-opacity:1;stroke:#000000;stroke-width:1;stroke-linecap:square;stroke-linejoin:miter;stroke-miterlimit:10;stroke-dasharray:none;stroke-dashoffset:0;stroke-opacity:1;color-rendering:auto;image-rendering:auto;shape-rendering:auto;text-rendering:auto"
   width="891.78668"
   height="452.1044"
   version="1.1"
   id="svg125"
   sodipodi:docname="SIRF.svg"
   inkscape:version="1.4 (86a8ad7, 2024-10-11)"
   xmlns:inkscape="http://www.inkscape.org/namespaces/inkscape"
   xmlns:sodipodi="http://sodipodi.sourceforge.net/DTD/sodipodi-0.dtd"
   xmlns="http://www.w3.org/2000/svg"
   xmlns:svg="http://www.w3.org/2000/svg">
  <sodipodi:namedview
     id="namedview125"
     pagecolor="#ffffff"
     bordercolor="#000000"
     borderopacity="0.25"
     inkscape:showpageshadow="2"
     inkscape:pageopacity="0.0"
     inkscape:pagecheckerboard="0"
     inkscape:deskcolor="#d1d1d1"
     inkscape:zoom="1.2798942"
     inkscape:cx="525.43407"
     inkscape:cy="176.96776"
     inkscape:window-width="2560"
     inkscape:window-height="1009"
     inkscape:window-x="-8"
     inkscape:window-y="-8"
     inkscape:window-maximized="1"
     inkscape:current-layer="svg125" />
  <!--Generated by the Batik Graphics2D SVG Generator-->
  <defs
     id="genericDefs">
    <defs
       id="defs1">
      <clipPath
         clipPathUnits="userSpaceOnUse"
         id="clipPath1">
        <path
           d="M 0,0 H 990 V 458 H 0 Z"
           id="path1" />
      </clipPath>
    </defs>
  </defs>
  <path
     style="color-interpolation:sRGB;fill:#ffffff;stroke:none;color-rendering:optimizeSpeed;image-rendering:optimizeSpeed;shape-rendering:crispEdges;text-rendering:optimizeSpeed"
     d="m 92.4429,357.5 h 347 v -347 h -347 z"
     id="path2" />
  <line
     y2="357.5"
     style="color-interpolation:linearRGB;fill:none;stroke:#262626;stroke-width:2.6667;stroke-linejoin:round;color-rendering:optimizeQuality;image-rendering:optimizeQuality;text-rendering:geometricPrecision"
     x1="92.442902"
     x2="439.4429"
     y1="357.5"
     id="line2" />
  <line
     y2="360.97"
     style="color-interpolation:linearRGB;fill:none;stroke:#262626;stroke-width:2.6667;stroke-linejoin:round;color-rendering:optimizeQuality;image-rendering:optimizeQuality;text-rendering:geometricPrecision"
     x1="92.442902"
     x2="92.442902"
     y1="357.5"
     id="line3" />
  <line
     y2="360.97"
     style="color-interpolation:linearRGB;fill:none;stroke:#262626;stroke-width:2.6667;stroke-linejoin:round;color-rendering:optimizeQuality;image-rendering:optimizeQuality;text-rendering:geometricPrecision"
     x1="121.3596"
     x2="121.3596"
     y1="357.5"
     id="line4" />
  <line
     y2="360.97"
     style="color-interpolation:linearRGB;fill:none;stroke:#262626;stroke-width:2.6667;stroke-linejoin:round;color-rendering:optimizeQuality;image-rendering:optimizeQuality;text-rendering:geometricPrecision"
     x1="150.2762"
     x2="150.2762"
     y1="357.5"
     id="line5" />
  <line
     y2="360.97"
     style="color-interpolation:linearRGB;fill:none;stroke:#262626;stroke-width:2.6667;stroke-linejoin:round;color-rendering:optimizeQuality;image-rendering:optimizeQuality;text-rendering:geometricPrecision"
     x1="179.1929"
     x2="179.1929"
     y1="357.5"
     id="line6" />
  <line
     y2="360.97"
     style="color-interpolation:linearRGB;fill:none;stroke:#262626;stroke-width:2.6667;stroke-linejoin:round;color-rendering:optimizeQuality;image-rendering:optimizeQuality;text-rendering:geometricPrecision"
     x1="208.1096"
     x2="208.1096"
     y1="357.5"
     id="line7" />
  <line
     y2="360.97"
     style="color-interpolation:linearRGB;fill:none;stroke:#262626;stroke-width:2.6667;stroke-linejoin:round;color-rendering:optimizeQuality;image-rendering:optimizeQuality;text-rendering:geometricPrecision"
     x1="237.0262"
     x2="237.0262"
     y1="357.5"
     id="line8" />
  <line
     y2="360.97"
     style="color-interpolation:linearRGB;fill:none;stroke:#262626;stroke-width:2.6667;stroke-linejoin:round;color-rendering:optimizeQuality;image-rendering:optimizeQuality;text-rendering:geometricPrecision"
     x1="265.9429"
     x2="265.9429"
     y1="357.5"
     id="line9" />
  <line
     y2="360.97"
     style="color-interpolation:linearRGB;fill:none;stroke:#262626;stroke-width:2.6667;stroke-linejoin:round;color-rendering:optimizeQuality;image-rendering:optimizeQuality;text-rendering:geometricPrecision"
     x1="294.85959"
     x2="294.85959"
     y1="357.5"
     id="line10" />
  <line
     y2="360.97"
     style="color-interpolation:linearRGB;fill:none;stroke:#262626;stroke-width:2.6667;stroke-linejoin:round;color-rendering:optimizeQuality;image-rendering:optimizeQuality;text-rendering:geometricPrecision"
     x1="323.77621"
     x2="323.77621"
     y1="357.5"
     id="line11" />
  <line
     y2="360.97"
     style="color-interpolation:linearRGB;fill:none;stroke:#262626;stroke-width:2.6667;stroke-linejoin:round;color-rendering:optimizeQuality;image-rendering:optimizeQuality;text-rendering:geometricPrecision"
     x1="352.6929"
     x2="352.6929"
     y1="357.5"
     id="line12" />
  <line
     y2="360.97"
     style="color-interpolation:linearRGB;fill:none;stroke:#262626;stroke-width:2.6667;stroke-linejoin:round;color-rendering:optimizeQuality;image-rendering:optimizeQuality;text-rendering:geometricPrecision"
     x1="381.60959"
     x2="381.60959"
     y1="357.5"
     id="line13" />
  <line
     y2="360.97"
     style="color-interpolation:linearRGB;fill:none;stroke:#262626;stroke-width:2.6667;stroke-linejoin:round;color-rendering:optimizeQuality;image-rendering:optimizeQuality;text-rendering:geometricPrecision"
     x1="410.52621"
     x2="410.52621"
     y1="357.5"
     id="line14" />
  <line
     y2="360.97"
     style="color-interpolation:linearRGB;fill:none;stroke:#262626;stroke-width:2.6667;stroke-linejoin:round;color-rendering:optimizeQuality;image-rendering:optimizeQuality;text-rendering:geometricPrecision"
     x1="439.4429"
     x2="439.4429"
     y1="357.5"
     id="line15" />
  <path
     style="font-size:32px;color-interpolation:linearRGB;fill:#262626;stroke:none;color-rendering:optimizeQuality;image-rendering:optimizeQuality;text-rendering:geometricPrecision"
     d="m 78.9585,396.1617 v -2.8281 h 8.6406 v 2.8281 z m 10.9844,0.8281 2.8125,-0.375 q 0.4844,2.3907 1.6484,3.4453 1.1641,1.0547 2.836,1.0547 1.9843,0 3.3515,-1.375 1.3672,-1.375 1.3672,-3.4062 0,-1.9375 -1.2656,-3.1953 -1.2656,-1.2578 -3.2188,-1.2578 -0.7968,0 -1.9843,0.3124 l 0.3125,-2.4687 q 0.2812,0.0313 0.4531,0.0313 1.7969,0 3.2344,-0.9376 1.4375,-0.9374 1.4375,-2.8906 0,-1.5468 -1.0469,-2.5625 -1.0469,-1.0156 -2.7031,-1.0156 -1.6406,0 -2.7344,1.0313 -1.0938,1.0312 -1.4062,3.0937 l -2.8126,-0.5 q 0.5157,-2.8281 2.3438,-4.3828 1.8281,-1.5547 4.5469,-1.5547 1.875,0 3.4531,0.8047 1.5781,0.8047 2.4141,2.1953 0.8359,1.3906 0.8359,2.9531 0,1.4844 -0.7969,2.7031 -0.7969,1.2188 -2.3593,1.9376 2.0312,0.4687 3.1562,1.9453 1.125,1.4765 1.125,3.6953 0,3 -2.1875,5.0859 -2.1875,2.0859 -5.5313,2.0859 -3.0156,0 -5.0078,-1.7968 -1.9922,-1.7969 -2.2734,-4.6563 z"
     id="path15" />
  <path
     style="font-size:32px;color-interpolation:linearRGB;fill:#262626;stroke:none;color-rendering:optimizeQuality;image-rendering:optimizeQuality;text-rendering:geometricPrecision"
     d="m 136.7918,396.1617 v -2.8281 h 8.6406 v 2.8281 z m 25.75,4.1719 v 2.7031 h -15.1406 q -0.0312,-1.0156 0.3281,-1.9531 0.5781,-1.5469 1.8516,-3.0469 1.2734,-1.5 3.6797,-3.4688 3.7344,-3.0624 5.0468,-4.8515 1.3126,-1.7891 1.3126,-3.3828 0,-1.6719 -1.1954,-2.8203 -1.1953,-1.1485 -3.1172,-1.1485 -2.0312,0 -3.25,1.2188 -1.2187,1.2187 -1.2343,3.375 l -2.8907,-0.2969 q 0.2969,-3.2344 2.2344,-4.9297 1.9375,-1.6953 5.2032,-1.6953 3.2968,0 5.2187,1.8281 1.9219,1.8281 1.9219,4.5313 0,1.375 -0.5625,2.7031 -0.5625,1.3281 -1.8672,2.7969 -1.3047,1.4687 -4.3359,4.0312 -2.5313,2.125 -3.25,2.8828 -0.7188,0.7578 -1.1876,1.5235 z"
     id="path16" />
  <path
     style="font-size:32px;color-interpolation:linearRGB;fill:#262626;stroke:none;color-rendering:optimizeQuality;image-rendering:optimizeQuality;text-rendering:geometricPrecision"
     d="m 194.6252,396.1617 v -2.8281 h 8.6406 v 2.8281 z m 21.5625,6.875 h -2.8125 v -17.9219 q -1.0156,0.9688 -2.664,1.9375 -1.6485,0.9688 -2.961,1.4532 v -2.7188 q 2.3594,-1.1094 4.125,-2.6875 1.7656,-1.5781 2.5,-3.0625 h 1.8125 z"
     id="path17" />
  <path
     style="font-size:32px;color-interpolation:linearRGB;fill:#262626;stroke:none;color-rendering:optimizeQuality;image-rendering:optimizeQuality;text-rendering:geometricPrecision"
     d="m 258.271,391.7398 q 0,-4.0625 0.836,-6.539 0.8359,-2.4766 2.4843,-3.8203 1.6485,-1.3438 4.1485,-1.3438 1.8437,0 3.2343,0.7422 1.3907,0.7422 2.2969,2.1406 0.9063,1.3984 1.4219,3.4063 0.5156,2.0078 0.5156,5.414 0,4.0313 -0.8281,6.5078 -0.8281,2.4766 -2.4766,3.8282 -1.6484,1.3515 -4.164,1.3515 -3.3125,0 -5.2031,-2.375 -2.2657,-2.8594 -2.2657,-9.3125 z m 2.8907,0 q 0,5.6407 1.3203,7.5078 1.3203,1.8672 3.2578,1.8672 1.9375,0 3.2578,-1.875 1.3203,-1.875 1.3203,-7.5 0,-5.6562 -1.3203,-7.5156 -1.3203,-1.8594 -3.2891,-1.8594 -1.9375,0 -3.0937,1.6407 -1.4531,2.0937 -1.4531,7.7343 z"
     id="path18" />
  <path
     style="font-size:32px;color-interpolation:linearRGB;fill:#262626;stroke:none;color-rendering:optimizeQuality;image-rendering:optimizeQuality;text-rendering:geometricPrecision"
     d="m 326.6981,403.0367 h -2.8125 v -17.9219 q -1.0156,0.9688 -2.6641,1.9375 -1.6484,0.9688 -2.9609,1.4532 v -2.7188 q 2.3594,-1.1094 4.125,-2.6875 1.7656,-1.5781 2.5,-3.0625 h 1.8125 z"
     id="path19" />
  <path
     style="font-size:32px;color-interpolation:linearRGB;fill:#262626;stroke:none;color-rendering:optimizeQuality;image-rendering:optimizeQuality;text-rendering:geometricPrecision"
     d="m 388.719,400.3336 v 2.7031 h -15.1406 q -0.0313,-1.0156 0.3281,-1.9531 0.5781,-1.5469 1.8515,-3.0469 1.2735,-1.5 3.6797,-3.4688 3.7344,-3.0624 5.0469,-4.8515 1.3125,-1.7891 1.3125,-3.3828 0,-1.6719 -1.1953,-2.8203 -1.1953,-1.1485 -3.1172,-1.1485 -2.0312,0 -3.25,1.2188 -1.2188,1.2187 -1.2344,3.375 l -2.8906,-0.2969 q 0.2969,-3.2344 2.2344,-4.9297 1.9375,-1.6953 5.2031,-1.6953 3.2969,0 5.2187,1.8281 1.9219,1.8281 1.9219,4.5313 0,1.375 -0.5625,2.7031 -0.5625,1.3281 -1.8672,2.7969 -1.3046,1.4687 -4.3359,4.0312 -2.5313,2.125 -3.25,2.8828 -0.7187,0.7578 -1.1875,1.5235 z"
     id="path20" />
  <path
     style="font-size:32px;color-interpolation:linearRGB;fill:#262626;stroke:none;color-rendering:optimizeQuality;image-rendering:optimizeQuality;text-rendering:geometricPrecision"
     d="m 431.7867,396.9898 2.8124,-0.375 q 0.4844,2.3907 1.6485,3.4453 1.1641,1.0547 2.8359,1.0547 1.9844,0 3.3516,-1.375 1.3672,-1.375 1.3672,-3.4062 0,-1.9375 -1.2656,-3.1953 -1.2657,-1.2578 -3.2188,-1.2578 -0.7969,0 -1.9844,0.3124 l 0.3125,-2.4687 q 0.2813,0.0313 0.4531,0.0313 1.7969,0 3.2344,-0.9376 1.4375,-0.9374 1.4375,-2.8906 0,-1.5468 -1.0469,-2.5625 -1.0468,-1.0156 -2.7031,-1.0156 -1.6406,0 -2.7343,1.0313 -1.0938,1.0312 -1.4063,3.0937 l -2.8125,-0.5 q 0.5156,-2.8281 2.3438,-4.3828 1.8281,-1.5547 4.5468,-1.5547 1.875,0 3.4532,0.8047 1.5781,0.8047 2.414,2.1953 0.836,1.3906 0.836,2.9531 0,1.4844 -0.7969,2.7031 -0.7969,1.2188 -2.3594,1.9376 2.0313,0.4687 3.1563,1.9453 1.125,1.4765 1.125,3.6953 0,3 -2.1876,5.0859 -2.1874,2.0859 -5.5312,2.0859 -3.0156,0 -5.0078,-1.7968 -1.9922,-1.7969 -2.2734,-4.6563 z"
     id="path21" />
  <path
     style="font-size:32px;color-interpolation:linearRGB;fill:#262626;stroke:none;color-rendering:optimizeQuality;image-rendering:optimizeQuality;text-rendering:geometricPrecision"
     d="m 187.8806,438.0106 2.8594,-0.25 q 0.2031,1.7188 0.9453,2.8203 0.7422,1.1016 2.3047,1.7813 1.5625,0.6797 3.5156,0.6797 1.7344,0 3.0625,-0.5157 1.3281,-0.5156 1.9766,-1.414 0.6484,-0.8984 0.6484,-1.961 0,-1.0781 -0.625,-1.8828 -0.625,-0.8046 -2.0625,-1.3515 -0.9219,-0.3594 -4.0781,-1.1172 -3.1563,-0.7578 -4.4219,-1.4297 -1.6406,-0.8594 -2.4453,-2.1328 -0.8047,-1.2734 -0.8047,-2.8516 0,-1.7344 0.9844,-3.2422 0.9843,-1.5078 2.875,-2.289 1.8906,-0.7813 4.2031,-0.7813 2.5469,0 4.4922,0.8203 1.9453,0.8204 2.9922,2.4141 1.0468,1.5937 1.125,3.6094 l -2.9063,0.2187 q -0.2343,-2.1718 -1.5859,-3.2812 -1.3516,-1.1094 -3.9922,-1.1094 -2.75,0 -4.0078,1.0078 -1.2578,1.0078 -1.2578,2.4297 0,1.2344 0.8906,2.0313 0.875,0.7968 4.5703,1.6328 3.6953,0.8359 5.0703,1.4609 2,0.9219 2.9532,2.3359 0.9531,1.4141 0.9531,3.2578 0,1.8282 -1.0469,3.4454 -1.0469,1.6172 -3.0078,2.5156 -1.961,0.8984 -4.4141,0.8984 -3.1093,0 -5.2109,-0.9062 -2.1016,-0.9063 -3.2969,-2.7266 -1.1953,-1.8203 -1.2578,-4.1172 z m 22.5313,7.3594 v -22.9062 h 15.4531 v 2.7031 h -12.4219 v 7.0937 h 10.75 v 2.7032 h -10.75 V 445.37 Z m 33.2968,6.7344 q -2.3281,-2.9375 -3.9375,-6.875 -1.6093,-3.9375 -1.6093,-8.1563 0,-3.7187 1.2031,-7.125 1.4062,-3.9531 4.3437,-7.875 h 2.0156 q -1.8906,3.25 -2.5,4.6407 -0.9531,2.1562 -1.5,4.5 -0.6718,2.9218 -0.6718,5.875 0,7.5156 4.6718,15.0156 z m 16.1094,-12.8125 2.7656,0.3593 q -0.4531,2.8594 -2.3203,4.4766 -1.8672,1.6172 -4.5859,1.6172 -3.4063,0 -5.4766,-2.2266 -2.0703,-2.2265 -2.0703,-6.3828 0,-2.6875 0.8906,-4.7031 0.8907,-2.0156 2.711,-3.0234 1.8203,-1.0079 3.9609,-1.0079 2.7031,0 4.4219,1.3672 1.7187,1.3672 2.2031,3.8828 l -2.7344,0.4219 q -0.3906,-1.6719 -1.3828,-2.5156 -0.9922,-0.8437 -2.3984,-0.8437 -2.125,0 -3.4532,1.5234 -1.3281,1.5234 -1.3281,4.8203 0,3.3437 1.2813,4.8594 1.2812,1.5156 3.3437,1.5156 1.6563,0 2.7657,-1.0156 1.1093,-1.0157 1.4062,-3.125 z m 5.1719,12.4375 v -22.9532 h 2.5625 v 2.1563 q 0.9062,-1.2656 2.0468,-1.8984 1.1407,-0.6329 2.7657,-0.6329 2.125,0 3.75,1.0938 1.625,1.0938 2.4531,3.0859 0.8281,1.9922 0.8281,4.3672 0,2.5469 -0.914,4.586 -0.9141,2.039 -2.6563,3.125 -1.7422,1.0859 -3.664,1.0859 -1.4063,0 -2.5235,-0.5938 -1.1172,-0.5937 -1.8359,-1.5 v 8.0782 z m 2.5469,-14.5625 q 0,3.2031 1.2968,4.7343 1.2969,1.5313 3.1406,1.5313 1.875,0 3.211,-1.5859 1.3359,-1.586 1.3359,-4.9141 0,-3.1719 -1.3047,-4.75 -1.3046,-1.5781 -3.1172,-1.5781 -1.7968,0 -3.1796,1.6797 -1.3828,1.6797 -1.3828,4.8828 z m 15.25,8.2031 v -16.5938 h 2.5156 v 2.3282 q 0.7812,-1.2188 2.0781,-1.961 1.2969,-0.7422 2.9531,-0.7422 1.8438,0 3.0235,0.7657 1.1797,0.7656 1.664,2.1406 1.9688,-2.9063 5.125,-2.9063 2.4688,0 3.7969,1.3672 1.3281,1.3672 1.3281,4.211 V 445.37 h -2.7969 v -10.4531 q 0,-1.6875 -0.2734,-2.4297 -0.2734,-0.7422 -0.9922,-1.1953 -0.7187,-0.4531 -1.6875,-0.4531 -1.75,0 -2.9062,1.164 -1.1563,1.1641 -1.1563,3.7266 v 9.6406 h -2.8125 v -10.7812 q 0,-1.875 -0.6875,-2.8126 -0.6875,-0.9374 -2.25,-0.9374 -1.1875,0 -2.1953,0.625 -1.0078,0.625 -1.4609,1.8281 -0.4532,1.2031 -0.4532,3.4687 v 8.6094 z m 26.6562,0 v -16.5938 h 2.5156 v 2.3282 q 0.7813,-1.2188 2.0782,-1.961 1.2968,-0.7422 2.9531,-0.7422 1.8437,0 3.0234,0.7657 1.1797,0.7656 1.6641,2.1406 1.9687,-2.9063 5.125,-2.9063 2.4687,0 3.7968,1.3672 1.3282,1.3672 1.3282,4.211 V 445.37 h -2.7969 v -10.4531 q 0,-1.6875 -0.2734,-2.4297 -0.2735,-0.7422 -0.9922,-1.1953 -0.7188,-0.4531 -1.6875,-0.4531 -1.75,0 -2.9063,1.164 -1.1562,1.1641 -1.1562,3.7266 v 9.6406 h -2.8125 v -10.7812 q 0,-1.875 -0.6875,-2.8126 -0.6875,-0.9374 -2.25,-0.9374 -1.1875,0 -2.1953,0.625 -1.0078,0.625 -1.461,1.8281 -0.4531,1.2031 -0.4531,3.4687 v 8.6094 z m 28.5,6.7344 h -2.0156 q 4.6718,-7.5 4.6718,-15.0156 0,-2.9376 -0.6718,-5.8282 -0.5313,-2.3437 -1.4844,-4.5 -0.6094,-1.4062 -2.5156,-4.6875 h 2.0156 q 2.9375,3.9219 4.3438,7.875 1.2031,3.4063 1.2031,7.125 0,4.2188 -1.6172,8.1563 -1.6172,3.9375 -3.9297,6.875 z"
     id="path22" />
  <line
     y2="10.5"
     style="color-interpolation:linearRGB;fill:none;stroke:#262626;stroke-width:2.6667;stroke-linejoin:round;color-rendering:optimizeQuality;image-rendering:optimizeQuality;text-rendering:geometricPrecision"
     x1="92.442902"
     x2="92.442902"
     y1="357.5"
     id="line23" />
  <line
     y2="357.5"
     style="color-interpolation:linearRGB;fill:none;stroke:#262626;stroke-width:2.6667;stroke-linejoin:round;color-rendering:optimizeQuality;image-rendering:optimizeQuality;text-rendering:geometricPrecision"
     x1="92.442902"
     x2="88.9729"
     y1="357.5"
     id="line24" />
  <line
     y2="322.79999"
     style="color-interpolation:linearRGB;fill:none;stroke:#262626;stroke-width:2.6667;stroke-linejoin:round;color-rendering:optimizeQuality;image-rendering:optimizeQuality;text-rendering:geometricPrecision"
     x1="92.442902"
     x2="88.9729"
     y1="322.79999"
     id="line25" />
  <line
     y2="288.10001"
     style="color-interpolation:linearRGB;fill:none;stroke:#262626;stroke-width:2.6667;stroke-linejoin:round;color-rendering:optimizeQuality;image-rendering:optimizeQuality;text-rendering:geometricPrecision"
     x1="92.442902"
     x2="88.9729"
     y1="288.10001"
     id="line26" />
  <line
     y2="253.39999"
     style="color-interpolation:linearRGB;fill:none;stroke:#262626;stroke-width:2.6667;stroke-linejoin:round;color-rendering:optimizeQuality;image-rendering:optimizeQuality;text-rendering:geometricPrecision"
     x1="92.442902"
     x2="88.9729"
     y1="253.39999"
     id="line27" />
  <line
     y2="218.70001"
     style="color-interpolation:linearRGB;fill:none;stroke:#262626;stroke-width:2.6667;stroke-linejoin:round;color-rendering:optimizeQuality;image-rendering:optimizeQuality;text-rendering:geometricPrecision"
     x1="92.442902"
     x2="88.9729"
     y1="218.70001"
     id="line28" />
  <line
     y2="184"
     style="color-interpolation:linearRGB;fill:none;stroke:#262626;stroke-width:2.6667;stroke-linejoin:round;color-rendering:optimizeQuality;image-rendering:optimizeQuality;text-rendering:geometricPrecision"
     x1="92.442902"
     x2="88.9729"
     y1="184"
     id="line29" />
  <line
     y2="149.3"
     style="color-interpolation:linearRGB;fill:none;stroke:#262626;stroke-width:2.6667;stroke-linejoin:round;color-rendering:optimizeQuality;image-rendering:optimizeQuality;text-rendering:geometricPrecision"
     x1="92.442902"
     x2="88.9729"
     y1="149.3"
     id="line30" />
  <line
     y2="114.60001"
     style="color-interpolation:linearRGB;fill:none;stroke:#262626;stroke-width:2.6667;stroke-linejoin:round;color-rendering:optimizeQuality;image-rendering:optimizeQuality;text-rendering:geometricPrecision"
     x1="92.442902"
     x2="88.9729"
     y1="114.60001"
     id="line31" />
  <line
     y2="79.900002"
     style="color-interpolation:linearRGB;fill:none;stroke:#262626;stroke-width:2.6667;stroke-linejoin:round;color-rendering:optimizeQuality;image-rendering:optimizeQuality;text-rendering:geometricPrecision"
     x1="92.442902"
     x2="88.9729"
     y1="79.900002"
     id="line32" />
  <line
     y2="45.199997"
     style="color-interpolation:linearRGB;fill:none;stroke:#262626;stroke-width:2.6667;stroke-linejoin:round;color-rendering:optimizeQuality;image-rendering:optimizeQuality;text-rendering:geometricPrecision"
     x1="92.442902"
     x2="88.9729"
     y1="45.199997"
     id="line33" />
  <line
     y2="10.5"
     style="color-interpolation:linearRGB;fill:none;stroke:#262626;stroke-width:2.6667;stroke-linejoin:round;color-rendering:optimizeQuality;image-rendering:optimizeQuality;text-rendering:geometricPrecision"
     x1="92.442902"
     x2="88.9729"
     y1="10.5"
     id="line34" />
  <path
     style="font-size:32px;color-interpolation:linearRGB;fill:#262626;stroke:none;color-rendering:optimizeQuality;image-rendering:optimizeQuality;text-rendering:geometricPrecision"
     d="m 63.2343,358.7031 q 0,-4.0625 0.836,-6.539 0.8359,-2.4766 2.4843,-3.8203 Q 68.2031,347 70.7031,347 q 1.8437,0 3.2343,0.7422 1.3907,0.7422 2.2969,2.1406 0.9063,1.3984 1.4219,3.4063 0.5156,2.0078 0.5156,5.414 0,4.0313 -0.8281,6.5078 -0.8281,2.4766 -2.4766,3.8282 -1.6484,1.3515 -4.164,1.3515 -3.3125,0 -5.2031,-2.375 -2.2657,-2.8594 -2.2657,-9.3125 z m 2.8907,0 q 0,5.6407 1.3203,7.5078 1.3203,1.8672 3.2578,1.8672 1.9375,0 3.2578,-1.875 1.3203,-1.875 1.3203,-7.5 0,-5.6562 -1.3203,-7.5156 -1.3203,-1.8594 -3.2891,-1.8594 -1.9375,0 -3.0937,1.6407 -1.4531,2.0937 -1.4531,7.7343 z"
     id="path34" />
  <path
     style="font-size:32px;color-interpolation:linearRGB;fill:#262626;stroke:none;color-rendering:optimizeQuality;image-rendering:optimizeQuality;text-rendering:geometricPrecision"
     d="m 36.2343,289.3031 q 0,-4.0625 0.836,-6.539 0.8359,-2.4766 2.4843,-3.8203 1.6485,-1.3438 4.1485,-1.3438 1.8437,0 3.2343,0.7422 1.3907,0.7422 2.2969,2.1406 0.9063,1.3984 1.4219,3.4063 0.5156,2.0078 0.5156,5.414 0,4.0313 -0.8281,6.5078 -0.8281,2.4766 -2.4766,3.8282 -1.6484,1.3515 -4.164,1.3515 -3.3125,0 -5.2031,-2.375 -2.2657,-2.8594 -2.2657,-9.3125 z m 2.8907,0 q 0,5.6407 1.3203,7.5078 1.3203,1.8672 3.2578,1.8672 1.9375,0 3.2578,-1.875 1.3203,-1.875 1.3203,-7.5 0,-5.6562 -1.3203,-7.5156 -1.3203,-1.8594 -3.2891,-1.8594 -1.9375,0 -3.0937,1.6407 -1.4531,2.0937 -1.4531,7.7343 z M 55.6093,300.6 v -3.2031 h 3.2031 V 300.6 Z m 22.0938,-2.7031 V 300.6 H 62.5624 q -0.0312,-1.0156 0.3282,-1.9531 0.5781,-1.5469 1.8515,-3.0469 1.2735,-1.5 3.6797,-3.4688 3.7344,-3.0624 5.0469,-4.8515 1.3125,-1.7891 1.3125,-3.3828 0,-1.6719 -1.1953,-2.8203 -1.1953,-1.1485 -3.1172,-1.1485 -2.0313,0 -3.25,1.2188 -1.2187,1.2187 -1.2344,3.375 l -2.8906,-0.2969 q 0.2969,-3.2344 2.2344,-4.9297 1.9375,-1.6953 5.2031,-1.6953 3.2969,0 5.2188,1.8281 1.9218,1.8281 1.9218,4.5313 0,1.375 -0.5625,2.7031 -0.5625,1.3281 -1.8672,2.7969 -1.3047,1.4687 -4.3359,4.0312 -2.5312,2.125 -3.25,2.8828 -0.7188,0.7578 -1.1875,1.5235 z"
     id="path35" />
  <path
     style="font-size:32px;color-interpolation:linearRGB;fill:#262626;stroke:none;color-rendering:optimizeQuality;image-rendering:optimizeQuality;text-rendering:geometricPrecision"
     d="m 36.2343,219.9031 q 0,-4.0625 0.836,-6.539 0.8359,-2.4766 2.4843,-3.8203 1.6485,-1.3438 4.1485,-1.3438 1.8437,0 3.2343,0.7422 1.3907,0.7422 2.2969,2.1406 0.9063,1.3984 1.4219,3.4063 0.5156,2.0078 0.5156,5.414 0,4.0313 -0.8281,6.5078 -0.8281,2.4766 -2.4766,3.8282 -1.6484,1.3515 -4.164,1.3515 -3.3125,0 -5.2031,-2.375 -2.2657,-2.8594 -2.2657,-9.3125 z m 2.8907,0 q 0,5.6407 1.3203,7.5078 1.3203,1.8672 3.2578,1.8672 1.9375,0 3.2578,-1.875 1.3203,-1.875 1.3203,-7.5 0,-5.6562 -1.3203,-7.5156 -1.3203,-1.8594 -3.2891,-1.8594 -1.9375,0 -3.0937,1.6407 -1.4531,2.0937 -1.4531,7.7343 z M 55.6093,231.2 v -3.2031 h 3.2031 V 231.2 Z m 16.3281,0 v -5.4844 H 62 v -2.5781 L 72.4531,208.2938 H 74.75 v 14.8437 h 3.0937 v 2.5781 H 74.75 V 231.2 Z m 0,-8.0625 v -10.3281 l -7.1718,10.3281 z"
     id="path36" />
  <path
     style="font-size:32px;color-interpolation:linearRGB;fill:#262626;stroke:none;color-rendering:optimizeQuality;image-rendering:optimizeQuality;text-rendering:geometricPrecision"
     d="m 36.2343,150.5031 q 0,-4.0625 0.836,-6.539 0.8359,-2.4766 2.4843,-3.8203 1.6485,-1.3438 4.1485,-1.3438 1.8437,0 3.2343,0.7422 1.3907,0.7422 2.2969,2.1406 0.9063,1.3984 1.4219,3.4063 0.5156,2.0078 0.5156,5.414 0,4.0313 -0.8281,6.5078 -0.8281,2.4766 -2.4766,3.8282 -1.6484,1.3515 -4.164,1.3515 -3.3125,0 -5.2031,-2.375 -2.2657,-2.8594 -2.2657,-9.3125 z m 2.8907,0 q 0,5.6407 1.3203,7.5078 1.3203,1.8672 3.2578,1.8672 1.9375,0 3.2578,-1.875 1.3203,-1.875 1.3203,-7.5 0,-5.6562 -1.3203,-7.5156 -1.3203,-1.8594 -3.2891,-1.8594 -1.9375,0 -3.0937,1.6407 -1.4531,2.0937 -1.4531,7.7343 z M 55.6093,161.8 v -3.2031 h 3.2031 V 161.8 Z m 21.9063,-17.2969 -2.7969,0.2188 q -0.375,-1.6563 -1.0625,-2.4063 -1.1406,-1.2031 -2.8125,-1.2031 -1.3437,0 -2.3594,0.75 -1.3281,0.9687 -2.0937,2.8281 -0.7656,1.8594 -0.7969,5.2969 1.0156,-1.5469 2.4844,-2.2969 1.4687,-0.75 3.0781,-0.75 2.8125,0 4.7891,2.0703 1.9765,2.0703 1.9765,5.3516 0,2.1563 -0.9297,4.0078 -0.9297,1.8516 -2.5547,2.8359 -1.625,0.9844 -3.6874,0.9844 -3.5157,0 -5.7344,-2.5859 -2.2188,-2.5859 -2.2188,-8.5235 0,-6.6406 2.4532,-9.6562 2.1406,-2.625 5.7656,-2.625 2.7031,0 4.4297,1.5156 1.7265,1.5156 2.0703,4.1875 z m -11.4844,9.875 q 0,1.4531 0.6172,2.7813 0.6172,1.3281 1.7266,2.0234 1.1093,0.6953 2.3281,0.6953 1.7812,0 3.0625,-1.4375 1.2812,-1.4375 1.2812,-3.9062 0,-2.375 -1.2656,-3.7422 -1.2656,-1.3672 -3.1875,-1.3672 -1.9063,0 -3.2344,1.3672 -1.3281,1.3672 -1.3281,3.5859 z"
     id="path37" />
  <path
     style="font-size:32px;color-interpolation:linearRGB;fill:#262626;stroke:none;color-rendering:optimizeQuality;image-rendering:optimizeQuality;text-rendering:geometricPrecision"
     d="m 36.2343,81.1031 q 0,-4.0625 0.836,-6.539 0.8359,-2.4766 2.4843,-3.8203 1.6485,-1.3438 4.1485,-1.3438 1.8437,0 3.2343,0.7422 1.3907,0.7422 2.2969,2.1406 0.9063,1.3984 1.4219,3.4063 0.5156,2.0078 0.5156,5.414 0,4.0313 -0.8281,6.5078 -0.8281,2.4766 -2.4766,3.8282 -1.6484,1.3515 -4.164,1.3515 -3.3125,0 -5.2031,-2.375 -2.2657,-2.8594 -2.2657,-9.3125 z m 2.8907,0 q 0,5.6407 1.3203,7.5078 1.3203,1.8672 3.2578,1.8672 1.9375,0 3.2578,-1.875 1.3203,-1.875 1.3203,-7.5 0,-5.6562 -1.3203,-7.5156 -1.3203,-1.8594 -3.2891,-1.8594 -1.9375,0 -3.0937,1.6407 -1.4531,2.0937 -1.4531,7.7343 z M 55.6093,92.4 v -3.2031 h 3.2031 V 92.4 Z M 67.25,79.9781 Q 65.5,79.3375 64.6562,78.15 q -0.8438,-1.1875 -0.8438,-2.8438 0,-2.5 1.7969,-4.2031 1.7969,-1.7031 4.7813,-1.7031 3,0 4.8281,1.7422 1.8281,1.7422 1.8281,4.2422 0,1.5937 -0.8359,2.7734 -0.8359,1.1797 -2.5391,1.8203 2.1094,0.6875 3.211,2.2188 1.1015,1.5312 1.1015,3.6562 0,2.9375 -2.0781,4.9375 -2.0781,2 -5.4688,2 -3.3906,0 -5.4687,-2.0078 -2.0781,-2.0078 -2.0781,-5.0078 0,-2.2344 1.1328,-3.7422 1.1328,-1.5078 3.2266,-2.0547 z m -0.5626,-4.7656 q 0,1.625 1.0469,2.6563 1.0469,1.0312 2.7188,1.0312 1.625,0 2.664,-1.0234 1.0391,-1.0235 1.0391,-2.5078 0,-1.5469 -1.0703,-2.6016 -1.0703,-1.0547 -2.6641,-1.0547 -1.6094,0 -2.6718,1.0313 -1.0626,1.0312 -1.0626,2.4687 z m -0.9062,10.5781 q 0,1.2032 0.5703,2.3282 0.5703,1.125 1.6953,1.7421 1.125,0.6172 2.4219,0.6172 2.0156,0 3.3281,-1.2969 1.3125,-1.2968 1.3125,-3.2968 0,-2.0313 -1.3515,-3.3594 -1.3516,-1.3281 -3.3828,-1.3281 -1.9844,0 -3.2891,1.3125 -1.3047,1.3125 -1.3047,3.2812 z"
     id="path38" />
  <path
     style="font-size:32px;color-interpolation:linearRGB;fill:#262626;stroke:none;color-rendering:optimizeQuality;image-rendering:optimizeQuality;text-rendering:geometricPrecision"
     d="M 73.8281,23 H 71.0156 V 5.0781 Q 70,6.0469 68.3515,7.0156 66.7031,7.9844 65.3906,8.4688 V 5.75 Q 67.75,4.6406 69.5156,3.0625 71.2812,1.4844 72.0156,0 h 1.8125 z"
     id="path39" />
  <path
     style="font-size:32px;color-interpolation:linearRGB;fill:#262626;stroke:none;color-rendering:optimizeQuality;image-rendering:optimizeQuality;text-rendering:geometricPrecision"
     d="M 22.9062,298.0623 H 0 v -3.1094 L 17.9843,282.9217 H 0 v -2.9063 h 22.9062 v 3.1094 l -18,12.0312 h 18 z m -8.2969,-21.7344 q -4.6093,0 -6.8281,-2.5625 -1.8438,-2.1406 -1.8438,-5.2187 0,-3.4219 2.2422,-5.5938 2.2422,-2.1719 6.1954,-2.1719 3.2031,0 5.039,0.961 1.836,0.9609 2.8516,2.7969 1.0156,1.8359 1.0156,4.0078 0,3.4843 -2.2344,5.6328 -2.2344,2.1484 -6.4375,2.1484 z m 0,-2.8906 q 3.1875,0 4.7735,-1.3906 1.5859,-1.3907 1.5859,-3.5 0,-2.0938 -1.5937,-3.4844 -1.5938,-1.3906 -4.8594,-1.3906 -3.0782,0 -4.6641,1.3984 -1.5859,1.3985 -1.5859,3.4766 0,2.1093 1.5781,3.5 1.5781,1.3906 4.7656,1.3906 z m 8.2969,-15.9219 H 6.3124 v -2.5312 H 8.8281 Q 7.0624,254.0154 6.5,253.1951 q -0.5626,-0.8203 -0.5626,-1.8047 0,-1.4218 0.9063,-2.8906 l 2.6094,0.9688 q -0.6094,1.0312 -0.6094,2.0624 0,0.9219 0.5547,1.6563 0.5547,0.7344 1.539,1.0469 1.5,0.4687 3.2813,0.4687 h 8.6875 z m 0,-10.6875 H 6.3124 v -2.5156 h 2.3282 q -1.2188,-0.7813 -1.961,-2.0781 -0.7422,-1.2969 -0.7422,-2.9532 0,-1.8437 0.7657,-3.0234 0.7656,-1.1797 2.1406,-1.664 -2.9063,-1.9688 -2.9063,-5.125 0,-2.4688 1.3672,-3.7969 1.3672,-1.3281 4.211,-1.3281 h 11.3906 v 2.7968 H 12.4531 q -1.6875,0 -2.4297,0.2735 -0.7422,0.2734 -1.1953,0.9921 -0.4531,0.7188 -0.4531,1.6876 0,1.75 1.164,2.9062 1.1641,1.1562 3.7266,1.1562 h 9.6406 v 2.8126 H 12.125 q -1.875,0 -2.8126,0.6874 -0.9374,0.6876 -0.9374,2.25 0,1.1876 0.625,2.1954 0.625,1.0078 1.8281,1.4609 1.2031,0.4531 3.4687,0.4531 h 8.6094 z m -2.0469,-37.4843 q 1.3281,1.5624 1.875,3.0078 0.5469,1.4453 0.5469,3.1015 0,2.7344 -1.3359,4.2031 -1.336,1.4688 -3.4141,1.4688 -1.2188,0 -2.2266,-0.5547 -1.0078,-0.5547 -1.6172,-1.4531 -0.6093,-0.8984 -0.9218,-2.0234 -0.2188,-0.8282 -0.4219,-2.5 -0.4063,-3.4063 -0.9687,-5.0157 -0.5782,-0.0156 -0.7344,-0.0156 -1.7188,0 -2.4219,0.7969 -0.9531,1.0781 -0.9531,3.2031 0,1.9844 0.6953,2.9297 0.6953,0.9453 2.4609,1.3984 l -0.375,2.75 q -1.7656,-0.375 -2.8515,-1.2344 -1.086,-0.8593 -1.6719,-2.4843 -0.586,-1.625 -0.586,-3.7657 0,-2.125 0.5,-3.4531 0.5,-1.3281 1.2579,-1.9531 0.7578,-0.625 1.914,-0.875 0.7188,-0.1406 2.5938,-0.1406 h 3.75 q 3.9219,0 4.9609,-0.1797 1.0391,-0.1797 1.9922,-0.7109 v 2.9374 q -0.875,0.4376 -2.0469,0.5626 z m -6.2812,0.2343 q 0.625,1.5313 1.0625,4.5938 0.25,1.7343 0.5625,2.4531 0.3125,0.7188 0.914,1.1094 0.6016,0.3906 1.336,0.3906 1.125,0 1.875,-0.8516 0.75,-0.8515 0.75,-2.4922 0,-1.625 -0.711,-2.8906 -0.7109,-1.2656 -1.9453,-1.8594 -0.9531,-0.4531 -2.8125,-0.4531 z m 8.3281,-7.1406 H 0 v -2.8125 H 22.9062 Z M 3.2343,195.2498 H 0 v -2.8125 h 3.2343 z m 19.6719,0 H 6.3124 v -2.8125 h 16.5938 z m 0,-5.6094 H 20.625 L 8.5,179.0779 q 0.0937,1.7969 0.0937,3.1719 v 6.7656 H 6.3124 v -13.5625 h 1.8594 l 10.5313,8.9844 1.9219,1.7344 q -0.1407,-1.8907 -0.1407,-3.5469 v -7.6719 h 2.4219 z m -5.3438,-28.8437 0.3594,-2.9063 q 2.5469,0.6875 3.9532,2.5469 1.4062,1.8594 1.4062,4.75 0,3.6406 -2.2422,5.7734 -2.2422,2.1329 -6.289,2.1329 -4.1876,0 -6.5,-2.1563 -2.3126,-2.1563 -2.3126,-5.5937 0,-3.3282 2.2657,-5.4376 2.2656,-2.1093 6.375,-2.1093 0.25,0 0.75,0.0156 v 12.375 q 2.7343,-0.1563 4.1875,-1.5469 1.4531,-1.3906 1.4531,-3.4687 0,-1.5469 -0.8125,-2.6407 -0.8125,-1.0937 -2.5938,-1.7343 z m -4.5468,9.2343 v -9.2656 q -2.0938,0.1875 -3.1406,1.0625 -1.625,1.3438 -1.625,3.4844 0,1.9375 1.2968,3.2578 1.2969,1.3203 3.4688,1.4609 z m 9.8906,-26.4374 h -2.0938 q 2.4688,1.5781 2.4688,4.6406 0,1.9844 -1.0938,3.6484 -1.0937,1.6641 -3.0546,2.5781 -1.961,0.9141 -4.5078,0.9141 -2.4844,0 -4.5079,-0.8281 -2.0234,-0.8281 -3.1015,-2.4844 -1.0782,-1.6563 -1.0782,-3.7031 0,-1.5 0.6329,-2.6719 0.6328,-1.1719 1.6484,-1.9063 H 0 v -2.7968 h 22.9062 z m -8.2812,8.8906 q 3.1874,0 4.7656,-1.3438 1.5781,-1.3437 1.5781,-3.1718 0,-1.8438 -1.5078,-3.1329 -1.5078,-1.289 -4.6016,-1.289 -3.4062,0 -5,1.3125 -1.5937,1.3125 -1.5937,3.2344 0,1.875 1.5312,3.1328 1.5313,1.2578 4.8282,1.2578 z m 6.2343,-35.6406 q 1.3281,1.5624 1.875,3.0078 0.5469,1.4453 0.5469,3.1015 0,2.7344 -1.3359,4.2031 -1.336,1.4688 -3.4141,1.4688 -1.2188,0 -2.2266,-0.5547 -1.0078,-0.5547 -1.6172,-1.4531 -0.6093,-0.8984 -0.9218,-2.0234 -0.2188,-0.8282 -0.4219,-2.5 -0.4063,-3.4063 -0.9687,-5.0157 -0.5782,-0.0156 -0.7344,-0.0156 -1.7188,0 -2.4219,0.7969 -0.9531,1.0781 -0.9531,3.2031 0,1.9844 0.6953,2.9297 0.6953,0.9453 2.4609,1.3984 l -0.375,2.75 q -1.7656,-0.375 -2.8515,-1.2344 -1.086,-0.8593 -1.6719,-2.4843 -0.586,-1.625 -0.586,-3.7657 0,-2.125 0.5,-3.4531 0.5,-1.3281 1.2579,-1.9531 0.7578,-0.625 1.914,-0.875 0.7188,-0.1406 2.5938,-0.1406 h 3.75 q 3.9219,0 4.9609,-0.1797 1.0391,-0.1797 1.9922,-0.7109 v 2.9374 q -0.875,0.4376 -2.0469,0.5626 z m -6.2812,0.2343 q 0.625,1.5313 1.0625,4.5938 0.25,1.7343 0.5625,2.4531 0.3125,0.7188 0.914,1.1094 0.6016,0.3906 1.336,0.3906 1.125,0 1.875,-0.8516 0.75,-0.8515 0.75,-2.4922 0,-1.625 -0.711,-2.8906 -0.7109,-1.2656 -1.9453,-1.8594 -0.9531,-0.4531 -2.8125,-0.4531 z m 8.3281,-7.2031 H 6.3124 v -2.5156 h 2.3282 q -1.2188,-0.7813 -1.961,-2.0782 -0.7422,-1.2968 -0.7422,-2.9531 0,-1.8437 0.7657,-3.0234 0.7656,-1.1797 2.1406,-1.6641 -2.9063,-1.9687 -2.9063,-5.125 0,-2.4687 1.3672,-3.7968 1.3672,-1.3282 4.211,-1.3282 h 11.3906 v 2.7969 H 12.4531 q -1.6875,0 -2.4297,0.2734 -0.7422,0.2735 -1.1953,0.9922 -0.4531,0.7188 -0.4531,1.6875 0,1.75 1.164,2.9063 1.1641,1.1562 3.7266,1.1562 h 9.6406 v 2.8125 H 12.125 q -1.875,0 -2.8126,0.6875 -0.9374,0.6875 -0.9374,2.25 0,1.1875 0.625,2.1953 0.625,1.0078 1.8281,1.461 1.2031,0.4531 3.4687,0.4531 h 8.6094 z M 29.2656,83.2186 H 6.3124 V 80.656 H 8.4687 Q 7.2031,79.7498 6.5703,78.6092 5.9374,77.4686 5.9374,75.8436 q 0,-2.125 1.0938,-3.75 1.0938,-1.625 3.0859,-2.4532 1.9922,-0.8281 4.3672,-0.8281 2.5469,0 4.586,0.9141 2.039,0.914 3.125,2.6562 1.0859,1.7422 1.0859,3.6641 0,1.4062 -0.5938,2.5234 -0.5937,1.1172 -1.5,1.8359 h 8.0782 z M 14.7031,80.6717 q 3.2031,0 4.7343,-1.2969 1.5313,-1.2969 1.5313,-3.1406 0,-1.875 -1.5859,-3.211 -1.586,-1.3359 -4.9141,-1.3359 -3.1719,0 -4.75,1.3047 -1.5781,1.3047 -1.5781,3.1172 0,1.7968 1.6797,3.1797 1.6797,1.3828 4.8828,1.3828 z"
     id="path40" />
  <path
     d="m 92.4015,356.8109 0.0414,-3e-4 2.8917,-0.0235 2.8916,-0.0247 2.8917,-0.0261 2.8917,-0.0274 2.8916,-0.029 2.8917,-0.0306 2.8917,-0.0323 2.8916,-0.0342 2.8917,-0.0362 2.8917,-0.0384 2.8916,-0.0408 2.8917,-0.0434 2.8917,-0.0461 2.8916,-0.0491 2.8917,-0.0525 2.8917,-0.056 2.8916,-0.06 2.8917,-0.0643 2.8917,-0.069 2.8916,-0.0742 2.8917,-0.08 2.8917,-0.0864 2.8916,-0.0934 2.8917,-0.1012 2.8917,-0.1099 2.8916,-0.1197 2.8917,-0.1307 2.8917,-0.143 2.8916,-0.157 2.8917,-0.1726 2.8917,-0.1907 2.8916,-0.2113 2.8917,-0.2348 2.8917,-0.2621 2.8916,-0.2936 2.8917,-0.3305 2.8917,-0.3738 2.8916,-0.4249 2.8917,-0.4858 2.8917,-0.5587 2.8916,-0.6469 2.8917,-0.7547 2.8917,-0.8873 2.8916,-1.0529 2.8917,-1.2617 2.8917,-1.5289 2.8916,-1.8759 2.8917,-2.3344 2.8917,-2.952 2.8916,-3.802 2.8917,-5.0005 2.8917,-6.7374 2.8916,-9.3318 2.8917,-13.3335 2.8917,-19.7001 2.8916,-30.0336 2.8917,-46.4788 2.8917,-68.8771 2.8916,-81.8112 2.8917,-42.492 2.8917,42.492 2.8916,81.8112 2.8917,68.8771 2.8917,46.4788 2.8916,30.0336 2.8917,19.7001 2.8917,13.3335 2.8916,9.3318 2.8917,6.7374 2.8917,5.0005 2.8916,3.802 2.8917,2.952 2.8917,2.3344 2.8916,1.8759 2.8917,1.5289 2.8917,1.2617 2.8916,1.0529 2.8917,0.8873 2.8917,0.7547 2.8916,0.6469 2.8917,0.5587 2.8917,0.4858 2.8916,0.4249 2.8917,0.3738 2.8917,0.3305 2.8916,0.2936 2.8917,0.2621 2.8917,0.2348 2.8916,0.2113 2.8917,0.1907 2.8917,0.1726 2.8916,0.157 2.8917,0.143 2.8917,0.1307 2.8916,0.1197 2.8917,0.1099 2.8917,0.1012 2.8916,0.0934 2.8917,0.0864 2.8917,0.08 2.8916,0.0742 2.8917,0.069 2.8917,0.0643 2.8916,0.06 2.8917,0.056 2.8917,0.0525 2.8916,0.0491 2.8917,0.0461 2.8917,0.0434 2.8916,0.0408 2.8917,0.0384 2.8917,0.0362 2.8916,0.0342 2.8917,0.0323 2.8917,0.0306 2.8916,0.029 2.8917,0.0274 2.8917,0.0261 2.8916,0.0247 2.8917,0.0235 0.0414,3e-4"
     style="color-interpolation:linearRGB;fill:none;fill-rule:evenodd;stroke:#ff9b00;stroke-width:3.3333;stroke-linecap:butt;stroke-linejoin:round;color-rendering:optimizeQuality;image-rendering:optimizeQuality;text-rendering:geometricPrecision"
     id="path41" />
  <circle
     r="5.3333001"
     style="color-interpolation:linearRGB;fill:#ffffff;stroke:none;color-rendering:optimizeQuality;image-rendering:optimizeQuality;text-rendering:geometricPrecision"
     cx="276.06369"
     cy="228.3855"
     id="circle42" />
  <circle
     r="5.3333001"
     style="color-interpolation:linearRGB;fill:none;stroke-width:3.3333;stroke-linecap:butt;color-rendering:optimizeQuality;image-rendering:optimizeQuality;text-rendering:geometricPrecision"
     cx="276.06369"
     cy="228.3855"
     id="circle43" />
  <circle
     r="5.3333001"
     style="color-interpolation:linearRGB;fill:#ffffff;stroke:none;color-rendering:optimizeQuality;image-rendering:optimizeQuality;text-rendering:geometricPrecision"
     cx="286.1846"
     cy="318.1633"
     id="circle44" />
  <circle
     r="5.3333001"
     style="color-interpolation:linearRGB;fill:none;stroke-width:3.3333;stroke-linecap:butt;color-rendering:optimizeQuality;image-rendering:optimizeQuality;text-rendering:geometricPrecision"
     cx="286.1846"
     cy="318.1633"
     id="circle45" />
  <circle
     r="5.3333001"
     style="color-interpolation:linearRGB;fill:#ffffff;stroke:none;color-rendering:optimizeQuality;image-rendering:optimizeQuality;text-rendering:geometricPrecision"
     cx="296.30539"
     cy="335.19299"
     id="circle46" />
  <circle
     r="5.3333001"
     style="color-interpolation:linearRGB;fill:none;stroke-width:3.3333;stroke-linecap:butt;color-rendering:optimizeQuality;image-rendering:optimizeQuality;text-rendering:geometricPrecision"
     cx="296.30539"
     cy="335.19299"
     id="circle47" />
  <circle
     r="5.3333001"
     style="color-interpolation:linearRGB;fill:#ffffff;stroke:none;color-rendering:optimizeQuality;image-rendering:optimizeQuality;text-rendering:geometricPrecision"
     cx="306.42621"
     cy="342.05399"
     id="circle48" />
  <circle
     r="5.3333001"
     style="color-interpolation:linearRGB;fill:none;stroke-width:3.3333;stroke-linecap:butt;color-rendering:optimizeQuality;image-rendering:optimizeQuality;text-rendering:geometricPrecision"
     cx="306.42621"
     cy="342.05399"
     id="circle49" />
  <circle
     r="5.3333001"
     style="color-interpolation:linearRGB;fill:#ffffff;stroke:none;color-rendering:optimizeQuality;image-rendering:optimizeQuality;text-rendering:geometricPrecision"
     cx="316.54709"
     cy="346.42731"
     id="circle50" />
  <circle
     r="5.3333001"
     style="color-interpolation:linearRGB;fill:none;stroke-width:3.3333;stroke-linecap:butt;color-rendering:optimizeQuality;image-rendering:optimizeQuality;text-rendering:geometricPrecision"
     cx="316.54709"
     cy="346.42731"
     id="circle51" />
  <circle
     r="5.3333001"
     style="color-interpolation:linearRGB;fill:#ffffff;stroke:none;color-rendering:optimizeQuality;image-rendering:optimizeQuality;text-rendering:geometricPrecision"
     cx="326.66791"
     cy="348.25739"
     id="circle52" />
  <circle
     r="5.3333001"
     style="color-interpolation:linearRGB;fill:none;stroke-width:3.3333;stroke-linecap:butt;color-rendering:optimizeQuality;image-rendering:optimizeQuality;text-rendering:geometricPrecision"
     cx="326.66791"
     cy="348.25739"
     id="circle53" />
  <circle
     r="5.3333001"
     style="color-interpolation:linearRGB;fill:#ffffff;stroke:none;color-rendering:optimizeQuality;image-rendering:optimizeQuality;text-rendering:geometricPrecision"
     cx="255.82211"
     cy="228.3855"
     id="circle54" />
  <circle
     r="5.3333001"
     style="color-interpolation:linearRGB;fill:none;stroke-width:3.3333;stroke-linecap:butt;color-rendering:optimizeQuality;image-rendering:optimizeQuality;text-rendering:geometricPrecision"
     cx="255.82211"
     cy="228.3855"
     id="circle55" />
  <circle
     r="5.3333001"
     style="color-interpolation:linearRGB;fill:#ffffff;stroke:none;color-rendering:optimizeQuality;image-rendering:optimizeQuality;text-rendering:geometricPrecision"
     cx="245.7012"
     cy="318.1633"
     id="circle56" />
  <circle
     r="5.3333001"
     style="color-interpolation:linearRGB;fill:none;stroke-width:3.3333;stroke-linecap:butt;color-rendering:optimizeQuality;image-rendering:optimizeQuality;text-rendering:geometricPrecision"
     cx="245.7012"
     cy="318.1633"
     id="circle57" />
  <circle
     r="5.3333001"
     style="color-interpolation:linearRGB;fill:#ffffff;stroke:none;color-rendering:optimizeQuality;image-rendering:optimizeQuality;text-rendering:geometricPrecision"
     cx="235.5804"
     cy="335.19299"
     id="circle58" />
  <circle
     r="5.3333001"
     style="color-interpolation:linearRGB;fill:none;stroke-width:3.3333;stroke-linecap:butt;color-rendering:optimizeQuality;image-rendering:optimizeQuality;text-rendering:geometricPrecision"
     cx="235.5804"
     cy="335.19299"
     id="circle59" />
  <circle
     r="5.3333001"
     style="color-interpolation:linearRGB;fill:#ffffff;stroke:none;color-rendering:optimizeQuality;image-rendering:optimizeQuality;text-rendering:geometricPrecision"
     cx="225.45959"
     cy="342.05399"
     id="circle60" />
  <circle
     r="5.3333001"
     style="color-interpolation:linearRGB;fill:none;stroke-width:3.3333;stroke-linecap:butt;color-rendering:optimizeQuality;image-rendering:optimizeQuality;text-rendering:geometricPrecision"
     cx="225.45959"
     cy="342.05399"
     id="circle61" />
  <circle
     r="5.3333001"
     style="color-interpolation:linearRGB;fill:#ffffff;stroke:none;color-rendering:optimizeQuality;image-rendering:optimizeQuality;text-rendering:geometricPrecision"
     cx="215.3387"
     cy="346.42731"
     id="circle62" />
  <circle
     r="5.3333001"
     style="color-interpolation:linearRGB;fill:none;stroke-width:3.3333;stroke-linecap:butt;color-rendering:optimizeQuality;image-rendering:optimizeQuality;text-rendering:geometricPrecision"
     cx="215.3387"
     cy="346.42731"
     id="circle63" />
  <circle
     r="5.3333001"
     style="color-interpolation:linearRGB;fill:#ffffff;stroke:none;color-rendering:optimizeQuality;image-rendering:optimizeQuality;text-rendering:geometricPrecision"
     cx="205.2179"
     cy="348.25739"
     id="circle64" />
  <circle
     r="5.3333001"
     style="color-interpolation:linearRGB;fill:none;stroke-width:3.3333;stroke-linecap:butt;color-rendering:optimizeQuality;image-rendering:optimizeQuality;text-rendering:geometricPrecision"
     cx="205.2179"
     cy="348.25739"
     id="circle65" />
  <path
     style="color-interpolation:sRGB;fill:#ffffff;stroke:none;color-rendering:optimizeSpeed;image-rendering:optimizeSpeed;shape-rendering:crispEdges;text-rendering:optimizeSpeed"
     d="m 538.4429,357 h 346 V 11 h -346 z"
     id="path74" />
  <line
     y2="357"
     style="color-interpolation:linearRGB;fill:none;stroke:#262626;stroke-width:2.6667;stroke-linejoin:round;color-rendering:optimizeQuality;image-rendering:optimizeQuality;text-rendering:geometricPrecision"
     x1="538.44287"
     x2="884.44287"
     y1="357"
     id="line75" />
  <line
     y2="360.45999"
     style="color-interpolation:linearRGB;fill:none;stroke:#262626;stroke-width:2.6667;stroke-linejoin:round;color-rendering:optimizeQuality;image-rendering:optimizeQuality;text-rendering:geometricPrecision"
     x1="538.44287"
     x2="538.44287"
     y1="357"
     id="line76" />
  <line
     y2="360.45999"
     style="color-interpolation:linearRGB;fill:none;stroke:#262626;stroke-width:2.6667;stroke-linejoin:round;color-rendering:optimizeQuality;image-rendering:optimizeQuality;text-rendering:geometricPrecision"
     x1="567.27618"
     x2="567.27618"
     y1="357"
     id="line77" />
  <line
     y2="360.45999"
     style="color-interpolation:linearRGB;fill:none;stroke:#262626;stroke-width:2.6667;stroke-linejoin:round;color-rendering:optimizeQuality;image-rendering:optimizeQuality;text-rendering:geometricPrecision"
     x1="596.10956"
     x2="596.10956"
     y1="357"
     id="line78" />
  <line
     y2="360.45999"
     style="color-interpolation:linearRGB;fill:none;stroke:#262626;stroke-width:2.6667;stroke-linejoin:round;color-rendering:optimizeQuality;image-rendering:optimizeQuality;text-rendering:geometricPrecision"
     x1="624.94287"
     x2="624.94287"
     y1="357"
     id="line79" />
  <line
     y2="360.45999"
     style="color-interpolation:linearRGB;fill:none;stroke:#262626;stroke-width:2.6667;stroke-linejoin:round;color-rendering:optimizeQuality;image-rendering:optimizeQuality;text-rendering:geometricPrecision"
     x1="653.77618"
     x2="653.77618"
     y1="357"
     id="line80" />
  <line
     y2="360.45999"
     style="color-interpolation:linearRGB;fill:none;stroke:#262626;stroke-width:2.6667;stroke-linejoin:round;color-rendering:optimizeQuality;image-rendering:optimizeQuality;text-rendering:geometricPrecision"
     x1="682.60956"
     x2="682.60956"
     y1="357"
     id="line81" />
  <line
     y2="360.45999"
     style="color-interpolation:linearRGB;fill:none;stroke:#262626;stroke-width:2.6667;stroke-linejoin:round;color-rendering:optimizeQuality;image-rendering:optimizeQuality;text-rendering:geometricPrecision"
     x1="711.44287"
     x2="711.44287"
     y1="357"
     id="line82" />
  <line
     y2="360.45999"
     style="color-interpolation:linearRGB;fill:none;stroke:#262626;stroke-width:2.6667;stroke-linejoin:round;color-rendering:optimizeQuality;image-rendering:optimizeQuality;text-rendering:geometricPrecision"
     x1="740.27618"
     x2="740.27618"
     y1="357"
     id="line83" />
  <line
     y2="360.45999"
     style="color-interpolation:linearRGB;fill:none;stroke:#262626;stroke-width:2.6667;stroke-linejoin:round;color-rendering:optimizeQuality;image-rendering:optimizeQuality;text-rendering:geometricPrecision"
     x1="769.10956"
     x2="769.10956"
     y1="357"
     id="line84" />
  <line
     y2="360.45999"
     style="color-interpolation:linearRGB;fill:none;stroke:#262626;stroke-width:2.6667;stroke-linejoin:round;color-rendering:optimizeQuality;image-rendering:optimizeQuality;text-rendering:geometricPrecision"
     x1="797.94287"
     x2="797.94287"
     y1="357"
     id="line85" />
  <line
     y2="360.45999"
     style="color-interpolation:linearRGB;fill:none;stroke:#262626;stroke-width:2.6667;stroke-linejoin:round;color-rendering:optimizeQuality;image-rendering:optimizeQuality;text-rendering:geometricPrecision"
     x1="826.77618"
     x2="826.77618"
     y1="357"
     id="line86" />
  <line
     y2="360.45999"
     style="color-interpolation:linearRGB;fill:none;stroke:#262626;stroke-width:2.6667;stroke-linejoin:round;color-rendering:optimizeQuality;image-rendering:optimizeQuality;text-rendering:geometricPrecision"
     x1="855.60956"
     x2="855.60956"
     y1="357"
     id="line87" />
  <line
     y2="360.45999"
     style="color-interpolation:linearRGB;fill:none;stroke:#262626;stroke-width:2.6667;stroke-linejoin:round;color-rendering:optimizeQuality;image-rendering:optimizeQuality;text-rendering:geometricPrecision"
     x1="884.44287"
     x2="884.44287"
     y1="357"
     id="line88" />
  <path
     style="font-size:32px;color-interpolation:linearRGB;fill:#262626;stroke:none;color-rendering:optimizeQuality;image-rendering:optimizeQuality;text-rendering:geometricPrecision"
     d="m 524.9585,395.6517 v -2.8281 h 8.6406 v 2.8281 z m 10.9844,0.8281 2.8125,-0.375 q 0.4844,2.3907 1.6484,3.4453 1.1641,1.0547 2.836,1.0547 1.9843,0 3.3515,-1.375 1.3672,-1.375 1.3672,-3.4062 0,-1.9375 -1.2656,-3.1953 -1.2656,-1.2578 -3.2188,-1.2578 -0.7968,0 -1.9843,0.3124 l 0.3125,-2.4687 q 0.2812,0.0313 0.4531,0.0313 1.7969,0 3.2344,-0.9376 1.4375,-0.9374 1.4375,-2.8906 0,-1.5468 -1.0469,-2.5625 -1.0469,-1.0156 -2.7031,-1.0156 -1.6406,0 -2.7344,1.0313 -1.0938,1.0312 -1.4062,3.0937 l -2.8126,-0.5 q 0.5157,-2.8281 2.3438,-4.3828 1.8281,-1.5547 4.5469,-1.5547 1.875,0 3.4531,0.8047 1.5781,0.8047 2.4141,2.1953 0.8359,1.3906 0.8359,2.9531 0,1.4844 -0.7969,2.7031 -0.7969,1.2188 -2.3593,1.9376 2.0312,0.4687 3.1562,1.9453 1.125,1.4765 1.125,3.6953 0,3 -2.1875,5.0859 -2.1875,2.0859 -5.5313,2.0859 -3.0156,0 -5.0078,-1.7968 -1.9922,-1.7969 -2.2734,-4.6563 z"
     id="path88" />
  <path
     style="font-size:32px;color-interpolation:linearRGB;fill:#262626;stroke:none;color-rendering:optimizeQuality;image-rendering:optimizeQuality;text-rendering:geometricPrecision"
     d="m 582.6252,395.6517 v -2.8281 h 8.6406 v 2.8281 z m 25.75,4.1719 v 2.7031 h -15.1406 q -0.0312,-1.0156 0.3281,-1.9531 0.5781,-1.5469 1.8516,-3.0469 1.2734,-1.5 3.6797,-3.4688 3.7344,-3.0624 5.0468,-4.8515 1.3126,-1.7891 1.3126,-3.3828 0,-1.6719 -1.1954,-2.8203 -1.1953,-1.1485 -3.1172,-1.1485 -2.0312,0 -3.25,1.2188 -1.2187,1.2187 -1.2343,3.375 l -2.8907,-0.2969 q 0.2969,-3.2344 2.2344,-4.9297 1.9375,-1.6953 5.2032,-1.6953 3.2968,0 5.2187,1.8281 1.9219,1.8281 1.9219,4.5313 0,1.375 -0.5625,2.7031 -0.5625,1.3281 -1.8672,2.7969 -1.3047,1.4687 -4.3359,4.0312 -2.5313,2.125 -3.25,2.8828 -0.7188,0.7578 -1.1876,1.5235 z"
     id="path89" />
  <path
     style="font-size:32px;color-interpolation:linearRGB;fill:#262626;stroke:none;color-rendering:optimizeQuality;image-rendering:optimizeQuality;text-rendering:geometricPrecision"
     d="m 640.2918,395.6517 v -2.8281 h 8.6406 v 2.8281 z m 21.5625,6.875 h -2.8125 v -17.9219 q -1.0156,0.9688 -2.664,1.9375 -1.6485,0.9688 -2.961,1.4532 v -2.7188 q 2.3594,-1.1094 4.125,-2.6875 1.7656,-1.5781 2.5,-3.0625 h 1.8125 z"
     id="path90" />
  <path
     style="font-size:32px;color-interpolation:linearRGB;fill:#262626;stroke:none;color-rendering:optimizeQuality;image-rendering:optimizeQuality;text-rendering:geometricPrecision"
     d="m 703.771,391.2298 q 0,-4.0625 0.836,-6.539 0.8359,-2.4766 2.4843,-3.8203 1.6485,-1.3438 4.1485,-1.3438 1.8437,0 3.2343,0.7422 1.3907,0.7422 2.2969,2.1406 0.9063,1.3984 1.4219,3.4063 0.5156,2.0078 0.5156,5.414 0,4.0313 -0.8281,6.5078 -0.8281,2.4766 -2.4766,3.8282 -1.6484,1.3515 -4.164,1.3515 -3.3125,0 -5.2031,-2.375 -2.2657,-2.8594 -2.2657,-9.3125 z m 2.8907,0 q 0,5.6407 1.3203,7.5078 1.3203,1.8672 3.2578,1.8672 1.9375,0 3.2578,-1.875 1.3203,-1.875 1.3203,-7.5 0,-5.6562 -1.3203,-7.5156 -1.3203,-1.8594 -3.2891,-1.8594 -1.9375,0 -3.0937,1.6407 -1.4531,2.0937 -1.4531,7.7343 z"
     id="path91" />
  <path
     style="font-size:32px;color-interpolation:linearRGB;fill:#262626;stroke:none;color-rendering:optimizeQuality;image-rendering:optimizeQuality;text-rendering:geometricPrecision"
     d="m 772.0315,402.5267 h -2.8125 v -17.9219 q -1.0156,0.9688 -2.6641,1.9375 -1.6484,0.9688 -2.9609,1.4532 v -2.7188 q 2.3594,-1.1094 4.125,-2.6875 1.7656,-1.5781 2.5,-3.0625 h 1.8125 z"
     id="path92" />
  <path
     style="font-size:32px;color-interpolation:linearRGB;fill:#262626;stroke:none;color-rendering:optimizeQuality;image-rendering:optimizeQuality;text-rendering:geometricPrecision"
     d="m 833.8856,399.8236 v 2.7031 H 818.745 q -0.0313,-1.0156 0.3281,-1.9531 0.5781,-1.5469 1.8515,-3.0469 1.2735,-1.5 3.6797,-3.4688 3.7344,-3.0624 5.0469,-4.8515 1.3125,-1.7891 1.3125,-3.3828 0,-1.6719 -1.1953,-2.8203 -1.1953,-1.1485 -3.1172,-1.1485 -2.0312,0 -3.25,1.2188 -1.2188,1.2187 -1.2344,3.375 l -2.8906,-0.2969 q 0.2969,-3.2344 2.2344,-4.9297 1.9375,-1.6953 5.2031,-1.6953 3.2969,0 5.2187,1.8281 1.9219,1.8281 1.9219,4.5313 0,1.375 -0.5625,2.7031 -0.5625,1.3281 -1.8672,2.7969 -1.3046,1.4687 -4.3359,4.0312 -2.5313,2.125 -3.25,2.8828 -0.7187,0.7578 -1.1875,1.5235 z"
     id="path93" />
  <path
     style="font-size:32px;color-interpolation:linearRGB;fill:#262626;stroke:none;color-rendering:optimizeQuality;image-rendering:optimizeQuality;text-rendering:geometricPrecision"
     d="m 876.7867,396.4798 2.8124,-0.375 q 0.4844,2.3907 1.6485,3.4453 1.1641,1.0547 2.8359,1.0547 1.9844,0 3.3516,-1.375 1.3672,-1.375 1.3672,-3.4062 0,-1.9375 -1.2656,-3.1953 -1.2657,-1.2578 -3.2188,-1.2578 -0.7969,0 -1.9844,0.3124 l 0.3125,-2.4687 q 0.2813,0.0313 0.4531,0.0313 1.7969,0 3.2344,-0.9376 1.4375,-0.9374 1.4375,-2.8906 0,-1.5468 -1.0469,-2.5625 -1.0468,-1.0156 -2.7031,-1.0156 -1.6406,0 -2.7343,1.0313 -1.0938,1.0312 -1.4063,3.0937 l -2.8125,-0.5 q 0.5156,-2.8281 2.3438,-4.3828 1.8281,-1.5547 4.5468,-1.5547 1.875,0 3.4532,0.8047 1.5781,0.8047 2.414,2.1953 0.836,1.3906 0.836,2.9531 0,1.4844 -0.7969,2.7031 -0.7969,1.2188 -2.3594,1.9376 2.0313,0.4687 3.1563,1.9453 1.125,1.4765 1.125,3.6953 0,3 -2.1876,5.0859 -2.1874,2.0859 -5.5312,2.0859 -3.0156,0 -5.0078,-1.7968 -1.9922,-1.7969 -2.2734,-4.6563 z"
     id="path94" />
  <path
     style="font-size:32px;color-interpolation:linearRGB;fill:#262626;stroke:none;color-rendering:optimizeQuality;image-rendering:optimizeQuality;text-rendering:geometricPrecision"
     d="m 659.0837,444.86 8.8594,-11.9375 -7.8125,-10.9687 h 3.6094 l 4.1562,5.875 q 1.2969,1.8281 1.8438,2.8124 0.7656,-1.25 1.8125,-2.6093 l 4.6094,-6.0781 h 3.2968 l -8.0468,10.7968 8.6718,12.1094 h -3.75 l -5.7656,-8.1719 q -0.4844,-0.7031 -1,-1.5312 -0.7656,1.25 -1.0938,1.7187 l -5.75,7.9844 z m 37.5782,6.7344 q -2.3282,-2.9375 -3.9376,-6.875 -1.6093,-3.9375 -1.6093,-8.1563 0,-3.7187 1.2031,-7.125 1.4062,-3.9531 4.3438,-7.875 h 2.0156 q -1.8906,3.25 -2.5,4.6407 -0.9532,2.1562 -1.5,4.5 -0.6719,2.9218 -0.6719,5.875 0,7.5156 4.6719,15.0156 z m 5.2812,-6.7344 v -16.5938 h 2.5156 v 2.3282 q 0.7813,-1.2188 2.0782,-1.961 1.2968,-0.7422 2.9531,-0.7422 1.8437,0 3.0234,0.7657 1.1797,0.7656 1.6641,2.1406 1.9687,-2.9063 5.125,-2.9063 2.4687,0 3.7968,1.3672 1.3282,1.3672 1.3282,4.211 V 444.86 h -2.7969 v -10.4531 q 0,-1.6875 -0.2734,-2.4297 -0.2735,-0.7422 -0.9922,-1.1953 -0.7188,-0.4531 -1.6875,-0.4531 -1.75,0 -2.9063,1.164 -1.1562,1.1641 -1.1562,3.7266 v 9.6406 h -2.8125 v -10.7812 q 0,-1.875 -0.6875,-2.8126 -0.6875,-0.9374 -2.25,-0.9374 -1.1875,0 -2.1953,0.625 -1.0078,0.625 -1.461,1.8281 -0.4531,1.2031 -0.4531,3.4687 v 8.6094 z m 26.6562,0 v -16.5938 h 2.5157 v 2.3282 q 0.7812,-1.2188 2.0781,-1.961 1.2969,-0.7422 2.9531,-0.7422 1.8438,0 3.0235,0.7657 1.1796,0.7656 1.664,2.1406 1.9688,-2.9063 5.125,-2.9063 2.4688,0 3.7969,1.3672 1.3281,1.3672 1.3281,4.211 V 444.86 h -2.7968 v -10.4531 q 0,-1.6875 -0.2735,-2.4297 -0.2734,-0.7422 -0.9922,-1.1953 -0.7187,-0.4531 -1.6875,-0.4531 -1.75,0 -2.9062,1.164 -1.1563,1.1641 -1.1563,3.7266 v 9.6406 h -2.8125 v -10.7812 q 0,-1.875 -0.6875,-2.8126 -0.6875,-0.9374 -2.25,-0.9374 -1.1875,0 -2.1953,0.625 -1.0078,0.625 -1.4609,1.8281 -0.4531,1.2031 -0.4531,3.4687 v 8.6094 z m 28.5,6.7344 h -2.0156 q 4.6719,-7.5 4.6719,-15.0156 0,-2.9376 -0.6719,-5.8282 -0.5312,-2.3437 -1.4844,-4.5 -0.6093,-1.4062 -2.5156,-4.6875 h 2.0156 q 2.9376,3.9219 4.3438,7.875 1.2031,3.4063 1.2031,7.125 0,4.2188 -1.6172,8.1563 -1.6171,3.9375 -3.9297,6.875 z"
     id="path95" />
  <line
     y2="11"
     style="color-interpolation:linearRGB;fill:none;stroke:#262626;stroke-width:2.6667;stroke-linejoin:round;color-rendering:optimizeQuality;image-rendering:optimizeQuality;text-rendering:geometricPrecision"
     x1="538.44287"
     x2="538.44287"
     y1="357"
     id="line96" />
  <line
     y2="357"
     style="color-interpolation:linearRGB;fill:none;stroke:#262626;stroke-width:2.6667;stroke-linejoin:round;color-rendering:optimizeQuality;image-rendering:optimizeQuality;text-rendering:geometricPrecision"
     x1="538.44287"
     x2="534.98285"
     y1="357"
     id="line97" />
  <line
     y2="322.39999"
     style="color-interpolation:linearRGB;fill:none;stroke:#262626;stroke-width:2.6667;stroke-linejoin:round;color-rendering:optimizeQuality;image-rendering:optimizeQuality;text-rendering:geometricPrecision"
     x1="538.44287"
     x2="534.98285"
     y1="322.39999"
     id="line98" />
  <line
     y2="287.79999"
     style="color-interpolation:linearRGB;fill:none;stroke:#262626;stroke-width:2.6667;stroke-linejoin:round;color-rendering:optimizeQuality;image-rendering:optimizeQuality;text-rendering:geometricPrecision"
     x1="538.44287"
     x2="534.98285"
     y1="287.79999"
     id="line99" />
  <line
     y2="253.20001"
     style="color-interpolation:linearRGB;fill:none;stroke:#262626;stroke-width:2.6667;stroke-linejoin:round;color-rendering:optimizeQuality;image-rendering:optimizeQuality;text-rendering:geometricPrecision"
     x1="538.44287"
     x2="534.98285"
     y1="253.20001"
     id="line100" />
  <line
     y2="218.60001"
     style="color-interpolation:linearRGB;fill:none;stroke:#262626;stroke-width:2.6667;stroke-linejoin:round;color-rendering:optimizeQuality;image-rendering:optimizeQuality;text-rendering:geometricPrecision"
     x1="538.44287"
     x2="534.98285"
     y1="218.60001"
     id="line101" />
  <line
     y2="184"
     style="color-interpolation:linearRGB;fill:none;stroke:#262626;stroke-width:2.6667;stroke-linejoin:round;color-rendering:optimizeQuality;image-rendering:optimizeQuality;text-rendering:geometricPrecision"
     x1="538.44287"
     x2="534.98285"
     y1="184"
     id="line102" />
  <line
     y2="149.39999"
     style="color-interpolation:linearRGB;fill:none;stroke:#262626;stroke-width:2.6667;stroke-linejoin:round;color-rendering:optimizeQuality;image-rendering:optimizeQuality;text-rendering:geometricPrecision"
     x1="538.44287"
     x2="534.98285"
     y1="149.39999"
     id="line103" />
  <line
     y2="114.8"
     style="color-interpolation:linearRGB;fill:none;stroke:#262626;stroke-width:2.6667;stroke-linejoin:round;color-rendering:optimizeQuality;image-rendering:optimizeQuality;text-rendering:geometricPrecision"
     x1="538.44287"
     x2="534.98285"
     y1="114.8"
     id="line104" />
  <line
     y2="80.199997"
     style="color-interpolation:linearRGB;fill:none;stroke:#262626;stroke-width:2.6667;stroke-linejoin:round;color-rendering:optimizeQuality;image-rendering:optimizeQuality;text-rendering:geometricPrecision"
     x1="538.44287"
     x2="534.98285"
     y1="80.199997"
     id="line105" />
  <line
     y2="45.599998"
     style="color-interpolation:linearRGB;fill:none;stroke:#262626;stroke-width:2.6667;stroke-linejoin:round;color-rendering:optimizeQuality;image-rendering:optimizeQuality;text-rendering:geometricPrecision"
     x1="538.44287"
     x2="534.98285"
     y1="45.599998"
     id="line106" />
  <line
     y2="11"
     style="color-interpolation:linearRGB;fill:none;stroke:#262626;stroke-width:2.6667;stroke-linejoin:round;color-rendering:optimizeQuality;image-rendering:optimizeQuality;text-rendering:geometricPrecision"
     x1="538.44287"
     x2="534.98285"
     y1="11"
     id="line107" />
  <path
     style="font-size:32px;color-interpolation:linearRGB;fill:#262626;stroke:none;color-rendering:optimizeQuality;image-rendering:optimizeQuality;text-rendering:geometricPrecision"
     d="m 509.2443,358.2031 q 0,-4.0625 0.836,-6.539 0.8359,-2.4766 2.4843,-3.8203 1.6485,-1.3438 4.1485,-1.3438 1.8437,0 3.2343,0.7422 1.3907,0.7422 2.2969,2.1406 0.9063,1.3984 1.4219,3.4063 0.5156,2.0078 0.5156,5.414 0,4.0313 -0.8281,6.5078 -0.8281,2.4766 -2.4766,3.8282 -1.6484,1.3515 -4.164,1.3515 -3.3125,0 -5.2031,-2.375 -2.2657,-2.8594 -2.2657,-9.3125 z m 2.8907,0 q 0,5.6407 1.3203,7.5078 1.3203,1.8672 3.2578,1.8672 1.9375,0 3.2578,-1.875 1.3203,-1.875 1.3203,-7.5 0,-5.6562 -1.3203,-7.5156 -1.3203,-1.8594 -3.2891,-1.8594 -1.9375,0 -3.0937,1.6407 -1.4531,2.0937 -1.4531,7.7343 z"
     id="path107" />
  <path
     style="font-size:32px;color-interpolation:linearRGB;fill:#262626;stroke:none;color-rendering:optimizeQuality;image-rendering:optimizeQuality;text-rendering:geometricPrecision"
     d="m 482.2443,289.0031 q 0,-4.0625 0.836,-6.539 0.8359,-2.4766 2.4843,-3.8203 1.6485,-1.3438 4.1485,-1.3438 1.8437,0 3.2343,0.7422 1.3907,0.7422 2.2969,2.1406 0.9063,1.3984 1.4219,3.4063 0.5156,2.0078 0.5156,5.414 0,4.0313 -0.8281,6.5078 -0.8281,2.4766 -2.4766,3.8282 -1.6484,1.3515 -4.164,1.3515 -3.3125,0 -5.2031,-2.375 -2.2657,-2.8594 -2.2657,-9.3125 z m 2.8907,0 q 0,5.6407 1.3203,7.5078 1.3203,1.8672 3.2578,1.8672 1.9375,0 3.2578,-1.875 1.3203,-1.875 1.3203,-7.5 0,-5.6562 -1.3203,-7.5156 -1.3203,-1.8594 -3.2891,-1.8594 -1.9375,0 -3.0937,1.6407 -1.4531,2.0937 -1.4531,7.7343 z M 501.6193,300.3 v -3.2031 h 3.2031 V 300.3 Z m 22.0938,-2.7031 V 300.3 h -15.1407 q -0.0312,-1.0156 0.3282,-1.9531 0.5781,-1.5469 1.8515,-3.0469 1.2735,-1.5 3.6797,-3.4688 3.7344,-3.0624 5.0469,-4.8515 1.3125,-1.7891 1.3125,-3.3828 0,-1.6719 -1.1953,-2.8203 -1.1953,-1.1485 -3.1172,-1.1485 -2.0313,0 -3.25,1.2188 -1.2187,1.2187 -1.2344,3.375 l -2.8906,-0.2969 q 0.2969,-3.2344 2.2344,-4.9297 1.9375,-1.6953 5.2031,-1.6953 3.2969,0 5.2188,1.8281 1.9218,1.8281 1.9218,4.5313 0,1.375 -0.5625,2.7031 -0.5625,1.3281 -1.8672,2.7969 -1.3047,1.4687 -4.3359,4.0312 -2.5312,2.125 -3.25,2.8828 -0.7188,0.7578 -1.1875,1.5235 z"
     id="path108" />
  <path
     style="font-size:32px;color-interpolation:linearRGB;fill:#262626;stroke:none;color-rendering:optimizeQuality;image-rendering:optimizeQuality;text-rendering:geometricPrecision"
     d="m 482.2443,219.8031 q 0,-4.0625 0.836,-6.539 0.8359,-2.4766 2.4843,-3.8203 1.6485,-1.3438 4.1485,-1.3438 1.8437,0 3.2343,0.7422 1.3907,0.7422 2.2969,2.1406 0.9063,1.3984 1.4219,3.4063 0.5156,2.0078 0.5156,5.414 0,4.0313 -0.8281,6.5078 -0.8281,2.4766 -2.4766,3.8282 -1.6484,1.3515 -4.164,1.3515 -3.3125,0 -5.2031,-2.375 -2.2657,-2.8594 -2.2657,-9.3125 z m 2.8907,0 q 0,5.6407 1.3203,7.5078 1.3203,1.8672 3.2578,1.8672 1.9375,0 3.2578,-1.875 1.3203,-1.875 1.3203,-7.5 0,-5.6562 -1.3203,-7.5156 -1.3203,-1.8594 -3.2891,-1.8594 -1.9375,0 -3.0937,1.6407 -1.4531,2.0937 -1.4531,7.7343 z M 501.6193,231.1 v -3.2031 h 3.2031 V 231.1 Z m 16.3281,0 v -5.4844 H 508.01 v -2.5781 l 10.4531,-14.8437 h 2.2969 v 14.8437 h 3.0937 v 2.5781 H 520.76 V 231.1 Z m 0,-8.0625 v -10.3281 l -7.1718,10.3281 z"
     id="path109" />
  <path
     style="font-size:32px;color-interpolation:linearRGB;fill:#262626;stroke:none;color-rendering:optimizeQuality;image-rendering:optimizeQuality;text-rendering:geometricPrecision"
     d="m 482.2443,150.6031 q 0,-4.0625 0.836,-6.539 0.8359,-2.4766 2.4843,-3.8203 1.6485,-1.3438 4.1485,-1.3438 1.8437,0 3.2343,0.7422 1.3907,0.7422 2.2969,2.1406 0.9063,1.3984 1.4219,3.4063 0.5156,2.0078 0.5156,5.414 0,4.0313 -0.8281,6.5078 -0.8281,2.4766 -2.4766,3.8282 -1.6484,1.3515 -4.164,1.3515 -3.3125,0 -5.2031,-2.375 -2.2657,-2.8594 -2.2657,-9.3125 z m 2.8907,0 q 0,5.6407 1.3203,7.5078 1.3203,1.8672 3.2578,1.8672 1.9375,0 3.2578,-1.875 1.3203,-1.875 1.3203,-7.5 0,-5.6562 -1.3203,-7.5156 -1.3203,-1.8594 -3.2891,-1.8594 -1.9375,0 -3.0937,1.6407 -1.4531,2.0937 -1.4531,7.7343 z M 501.6193,161.9 v -3.2031 h 3.2031 V 161.9 Z m 21.9063,-17.2969 -2.7969,0.2188 q -0.375,-1.6563 -1.0625,-2.4063 -1.1406,-1.2031 -2.8125,-1.2031 -1.3437,0 -2.3594,0.75 -1.3281,0.9687 -2.0937,2.8281 -0.7656,1.8594 -0.7969,5.2969 1.0156,-1.5469 2.4844,-2.2969 1.4687,-0.75 3.0781,-0.75 2.8125,0 4.7891,2.0703 1.9765,2.0703 1.9765,5.3516 0,2.1563 -0.9297,4.0078 -0.9297,1.8516 -2.5547,2.8359 -1.625,0.9844 -3.6874,0.9844 -3.5157,0 -5.7344,-2.5859 -2.2188,-2.5859 -2.2188,-8.5235 0,-6.6406 2.4532,-9.6562 2.1406,-2.625 5.7656,-2.625 2.7031,0 4.4297,1.5156 1.7265,1.5156 2.0703,4.1875 z m -11.4844,9.875 q 0,1.4531 0.6172,2.7813 0.6172,1.3281 1.7266,2.0234 1.1093,0.6953 2.3281,0.6953 1.7812,0 3.0625,-1.4375 1.2812,-1.4375 1.2812,-3.9062 0,-2.375 -1.2656,-3.7422 -1.2656,-1.3672 -3.1875,-1.3672 -1.9063,0 -3.2344,1.3672 -1.3281,1.3672 -1.3281,3.5859 z"
     id="path110" />
  <path
     style="font-size:32px;color-interpolation:linearRGB;fill:#262626;stroke:none;color-rendering:optimizeQuality;image-rendering:optimizeQuality;text-rendering:geometricPrecision"
     d="m 482.2443,81.4031 q 0,-4.0625 0.836,-6.539 0.8359,-2.4766 2.4843,-3.8203 1.6485,-1.3438 4.1485,-1.3438 1.8437,0 3.2343,0.7422 1.3907,0.7422 2.2969,2.1406 0.9063,1.3984 1.4219,3.4063 0.5156,2.0078 0.5156,5.414 0,4.0313 -0.8281,6.5078 -0.8281,2.4766 -2.4766,3.8282 -1.6484,1.3515 -4.164,1.3515 -3.3125,0 -5.2031,-2.375 -2.2657,-2.8594 -2.2657,-9.3125 z m 2.8907,0 q 0,5.6407 1.3203,7.5078 1.3203,1.8672 3.2578,1.8672 1.9375,0 3.2578,-1.875 1.3203,-1.875 1.3203,-7.5 0,-5.6562 -1.3203,-7.5156 -1.3203,-1.8594 -3.2891,-1.8594 -1.9375,0 -3.0937,1.6407 -1.4531,2.0937 -1.4531,7.7343 z M 501.6193,92.7 v -3.2031 h 3.2031 V 92.7 Z M 513.26,80.2781 q -1.75,-0.6406 -2.5938,-1.8281 -0.8438,-1.1875 -0.8438,-2.8438 0,-2.5 1.7969,-4.2031 1.7969,-1.7031 4.7813,-1.7031 3,0 4.8281,1.7422 1.8281,1.7422 1.8281,4.2422 0,1.5937 -0.8359,2.7734 -0.8359,1.1797 -2.5391,1.8203 2.1094,0.6875 3.211,2.2188 1.1015,1.5312 1.1015,3.6562 0,2.9375 -2.0781,4.9375 -2.0781,2 -5.4688,2 -3.3906,0 -5.4687,-2.0078 -2.0781,-2.0078 -2.0781,-5.0078 0,-2.2344 1.1328,-3.7422 1.1328,-1.5078 3.2266,-2.0547 z m -0.5626,-4.7656 q 0,1.625 1.0469,2.6563 1.0469,1.0312 2.7188,1.0312 1.625,0 2.664,-1.0234 1.0391,-1.0235 1.0391,-2.5078 0,-1.5469 -1.0703,-2.6016 -1.0703,-1.0547 -2.6641,-1.0547 -1.6094,0 -2.6718,1.0313 -1.0626,1.0312 -1.0626,2.4687 z m -0.9062,10.5781 q 0,1.2032 0.5703,2.3282 0.5703,1.125 1.6953,1.7421 1.125,0.6172 2.4219,0.6172 2.0156,0 3.3281,-1.2969 1.3125,-1.2968 1.3125,-3.2968 0,-2.0313 -1.3515,-3.3594 -1.3516,-1.3281 -3.3828,-1.3281 -1.9844,0 -3.2891,1.3125 -1.3047,1.3125 -1.3047,3.2812 z"
     id="path111" />
  <path
     style="font-size:32px;color-interpolation:linearRGB;fill:#262626;stroke:none;color-rendering:optimizeQuality;image-rendering:optimizeQuality;text-rendering:geometricPrecision"
     d="m 519.8381,23.5 h -2.8125 V 5.5781 q -1.0156,0.9688 -2.6641,1.9375 -1.6484,0.9688 -2.9609,1.4532 V 6.25 q 2.3594,-1.1094 4.125,-2.6875 1.7656,-1.5781 2.5,-3.0625 h 1.8125 z"
     id="path112" />
  <path
     style="font-size:32px;color-interpolation:linearRGB;fill:#262626;stroke:none;color-rendering:optimizeQuality;image-rendering:optimizeQuality;text-rendering:geometricPrecision"
     d="M 468.9162,298.0623 H 446.01 v -3.1094 l 17.9843,-12.0312 H 446.01 v -2.9063 h 22.9062 v 3.1094 l -18,12.0312 h 18 z m -8.2969,-21.7344 q -4.6093,0 -6.8281,-2.5625 -1.8438,-2.1406 -1.8438,-5.2187 0,-3.4219 2.2422,-5.5938 2.2422,-2.1719 6.1954,-2.1719 3.2031,0 5.039,0.961 1.836,0.9609 2.8516,2.7969 1.0156,1.8359 1.0156,4.0078 0,3.4843 -2.2344,5.6328 -2.2344,2.1484 -6.4375,2.1484 z m 0,-2.8906 q 3.1875,0 4.7735,-1.3906 1.5859,-1.3907 1.5859,-3.5 0,-2.0938 -1.5937,-3.4844 -1.5938,-1.3906 -4.8594,-1.3906 -3.0782,0 -4.6641,1.3984 -1.5859,1.3985 -1.5859,3.4766 0,2.1093 1.5781,3.5 1.5781,1.3906 4.7656,1.3906 z m 8.2969,-15.9219 h -16.5938 v -2.5312 h 2.5157 q -1.7657,-0.9688 -2.3281,-1.7891 -0.5626,-0.8203 -0.5626,-1.8047 0,-1.4218 0.9063,-2.8906 l 2.6094,0.9688 q -0.6094,1.0312 -0.6094,2.0624 0,0.9219 0.5547,1.6563 0.5547,0.7344 1.539,1.0469 1.5,0.4687 3.2813,0.4687 h 8.6875 z m 0,-10.6875 h -16.5938 v -2.5156 h 2.3282 q -1.2188,-0.7813 -1.961,-2.0781 -0.7422,-1.2969 -0.7422,-2.9532 0,-1.8437 0.7657,-3.0234 0.7656,-1.1797 2.1406,-1.664 -2.9063,-1.9688 -2.9063,-5.125 0,-2.4688 1.3672,-3.7969 1.3672,-1.3281 4.211,-1.3281 h 11.3906 v 2.7968 h -10.4531 q -1.6875,0 -2.4297,0.2735 -0.7422,0.2734 -1.1953,0.9921 -0.4531,0.7188 -0.4531,1.6876 0,1.75 1.164,2.9062 1.1641,1.1562 3.7266,1.1562 h 9.6406 v 2.8126 H 458.135 q -1.875,0 -2.8126,0.6874 -0.9374,0.6876 -0.9374,2.25 0,1.1876 0.625,2.1954 0.625,1.0078 1.8281,1.4609 1.2031,0.4531 3.4687,0.4531 h 8.6094 z m -2.0469,-37.4843 q 1.3281,1.5624 1.875,3.0078 0.5469,1.4453 0.5469,3.1015 0,2.7344 -1.3359,4.2031 -1.336,1.4688 -3.4141,1.4688 -1.2188,0 -2.2266,-0.5547 -1.0078,-0.5547 -1.6172,-1.4531 -0.6093,-0.8984 -0.9218,-2.0234 -0.2188,-0.8282 -0.4219,-2.5 -0.4063,-3.4063 -0.9687,-5.0157 -0.5782,-0.0156 -0.7344,-0.0156 -1.7188,0 -2.4219,0.7969 -0.9531,1.0781 -0.9531,3.2031 0,1.9844 0.6953,2.9297 0.6953,0.9453 2.4609,1.3984 l -0.375,2.75 q -1.7656,-0.375 -2.8515,-1.2344 -1.086,-0.8593 -1.6719,-2.4843 -0.586,-1.625 -0.586,-3.7657 0,-2.125 0.5,-3.4531 0.5,-1.3281 1.2579,-1.9531 0.7578,-0.625 1.914,-0.875 0.7188,-0.1406 2.5938,-0.1406 h 3.75 q 3.9219,0 4.9609,-0.1797 1.0391,-0.1797 1.9922,-0.7109 v 2.9374 q -0.875,0.4376 -2.0469,0.5626 z m -6.2812,0.2343 q 0.625,1.5313 1.0625,4.5938 0.25,1.7343 0.5625,2.4531 0.3125,0.7188 0.914,1.1094 0.6016,0.3906 1.336,0.3906 1.125,0 1.875,-0.8516 0.75,-0.8515 0.75,-2.4922 0,-1.625 -0.711,-2.8906 -0.7109,-1.2656 -1.9453,-1.8594 -0.9531,-0.4531 -2.8125,-0.4531 z m 8.3281,-7.1406 H 446.01 v -2.8125 h 22.9062 z m -19.6719,-7.1875 H 446.01 v -2.8125 h 3.2343 z m 19.6719,0 h -16.5938 v -2.8125 h 16.5938 z m 0,-5.6094 H 466.635 L 454.51,179.0779 q 0.0937,1.7969 0.0937,3.1719 v 6.7656 h -2.2813 v -13.5625 h 1.8594 l 10.5313,8.9844 1.9219,1.7344 q -0.1407,-1.8907 -0.1407,-3.5469 v -7.6719 h 2.4219 z m -5.3438,-28.8437 0.3594,-2.9063 q 2.5469,0.6875 3.9532,2.5469 1.4062,1.8594 1.4062,4.75 0,3.6406 -2.2422,5.7734 -2.2422,2.1329 -6.289,2.1329 -4.1876,0 -6.5,-2.1563 -2.3126,-2.1563 -2.3126,-5.5937 0,-3.3282 2.2657,-5.4376 2.2656,-2.1093 6.375,-2.1093 0.25,0 0.75,0.0156 v 12.375 q 2.7343,-0.1563 4.1875,-1.5469 1.4531,-1.3906 1.4531,-3.4687 0,-1.5469 -0.8125,-2.6407 -0.8125,-1.0937 -2.5938,-1.7343 z m -4.5468,9.2343 v -9.2656 q -2.0938,0.1875 -3.1406,1.0625 -1.625,1.3438 -1.625,3.4844 0,1.9375 1.2968,3.2578 1.2969,1.3203 3.4688,1.4609 z m 9.8906,-26.4374 h -2.0938 q 2.4688,1.5781 2.4688,4.6406 0,1.9844 -1.0938,3.6484 -1.0937,1.6641 -3.0546,2.5781 -1.961,0.9141 -4.5078,0.9141 -2.4844,0 -4.5079,-0.8281 -2.0234,-0.8281 -3.1015,-2.4844 -1.0782,-1.6563 -1.0782,-3.7031 0,-1.5 0.6329,-2.6719 0.6328,-1.1719 1.6484,-1.9063 H 446.01 v -2.7968 h 22.9062 z m -8.2812,8.8906 q 3.1874,0 4.7656,-1.3438 1.5781,-1.3437 1.5781,-3.1718 0,-1.8438 -1.5078,-3.1329 -1.5078,-1.289 -4.6016,-1.289 -3.4062,0 -5,1.3125 -1.5937,1.3125 -1.5937,3.2344 0,1.875 1.5312,3.1328 1.5313,1.2578 4.8282,1.2578 z m 6.2343,-35.6406 q 1.3281,1.5624 1.875,3.0078 0.5469,1.4453 0.5469,3.1015 0,2.7344 -1.3359,4.2031 -1.336,1.4688 -3.4141,1.4688 -1.2188,0 -2.2266,-0.5547 -1.0078,-0.5547 -1.6172,-1.4531 -0.6093,-0.8984 -0.9218,-2.0234 -0.2188,-0.8282 -0.4219,-2.5 -0.4063,-3.4063 -0.9687,-5.0157 -0.5782,-0.0156 -0.7344,-0.0156 -1.7188,0 -2.4219,0.7969 -0.9531,1.0781 -0.9531,3.2031 0,1.9844 0.6953,2.9297 0.6953,0.9453 2.4609,1.3984 l -0.375,2.75 q -1.7656,-0.375 -2.8515,-1.2344 -1.086,-0.8593 -1.6719,-2.4843 -0.586,-1.625 -0.586,-3.7657 0,-2.125 0.5,-3.4531 0.5,-1.3281 1.2579,-1.9531 0.7578,-0.625 1.914,-0.875 0.7188,-0.1406 2.5938,-0.1406 h 3.75 q 3.9219,0 4.9609,-0.1797 1.0391,-0.1797 1.9922,-0.7109 v 2.9374 q -0.875,0.4376 -2.0469,0.5626 z m -6.2812,0.2343 q 0.625,1.5313 1.0625,4.5938 0.25,1.7343 0.5625,2.4531 0.3125,0.7188 0.914,1.1094 0.6016,0.3906 1.336,0.3906 1.125,0 1.875,-0.8516 0.75,-0.8515 0.75,-2.4922 0,-1.625 -0.711,-2.8906 -0.7109,-1.2656 -1.9453,-1.8594 -0.9531,-0.4531 -2.8125,-0.4531 z m 8.3281,-7.2031 h -16.5938 v -2.5156 h 2.3282 q -1.2188,-0.7813 -1.961,-2.0782 -0.7422,-1.2968 -0.7422,-2.9531 0,-1.8437 0.7657,-3.0234 0.7656,-1.1797 2.1406,-1.6641 -2.9063,-1.9687 -2.9063,-5.125 0,-2.4687 1.3672,-3.7968 1.3672,-1.3282 4.211,-1.3282 h 11.3906 v 2.7969 h -10.4531 q -1.6875,0 -2.4297,0.2734 -0.7422,0.2735 -1.1953,0.9922 -0.4531,0.7188 -0.4531,1.6875 0,1.75 1.164,2.9063 1.1641,1.1562 3.7266,1.1562 h 9.6406 v 2.8125 H 458.135 q -1.875,0 -2.8126,0.6875 -0.9374,0.6875 -0.9374,2.25 0,1.1875 0.625,2.1953 0.625,1.0078 1.8281,1.461 1.2031,0.4531 3.4687,0.4531 h 8.6094 z m 6.3594,-26.6562 H 452.3224 V 80.656 h 2.1563 q -1.2656,-0.9062 -1.8984,-2.0468 -0.6329,-1.1406 -0.6329,-2.7656 0,-2.125 1.0938,-3.75 1.0938,-1.625 3.0859,-2.4532 1.9922,-0.8281 4.3672,-0.8281 2.5469,0 4.586,0.9141 2.039,0.914 3.125,2.6562 1.0859,1.7422 1.0859,3.6641 0,1.4062 -0.5938,2.5234 -0.5937,1.1172 -1.5,1.8359 h 8.0782 z m -14.5625,-2.5469 q 3.2031,0 4.7343,-1.2969 1.5313,-1.2969 1.5313,-3.1406 0,-1.875 -1.5859,-3.211 -1.586,-1.3359 -4.9141,-1.3359 -3.1719,0 -4.75,1.3047 -1.5781,1.3047 -1.5781,3.1172 0,1.7968 1.6797,3.1797 1.6797,1.3828 4.8828,1.3828 z"
     id="path113" />
  <path
     d="m 538.4016,328.4265 0.0413,-0.0164 5.7667,-2.4982 5.7666,-2.7104 5.7667,-2.9532 5.7667,-3.2043 5.7666,-3.4912 5.7667,-3.7881 5.7667,-4.1272 5.7666,-4.4782 5.7667,-4.8792 5.7667,-5.2939 5.7666,-5.7683 5.7667,-6.2581 5.7667,-6.8196 5.7666,-7.3977 5.7667,-8.0628 5.7667,-8.7444 5.7666,-9.533 5.7667,-10.3356 5.7667,-11.2725 5.7666,-12.2149 5.7667,-13.3312 5.7666,-14.4329 5.7668,-15.7711 5.7666,-17.0449 5.7667,-18.6727 5.7666,-20.1003 5.7667,-22.1723 5.7667,-23.5363 5.7666,-26.9264 5.7667,-21.5912 5.7667,21.5912 5.7666,26.9264 5.7667,23.5363 5.7667,22.1723 5.7666,20.1003 5.7667,18.6727 5.7666,17.0449 5.7668,15.7711 5.7666,14.4329 5.7667,13.3312 5.7666,12.2149 5.7667,11.2725 5.7667,10.3356 5.7666,9.533 5.7667,8.7444 5.7667,8.0628 5.7666,7.3977 5.7667,6.8196 5.7667,6.2581 5.7666,5.7683 5.7667,5.2939 5.7667,4.8792 5.7666,4.4782 5.7667,4.1272 5.7667,3.7881 5.7666,3.4912 5.7667,3.2043 5.7667,2.9532 5.7666,2.7104 5.7667,2.4982 0.0413,0.0164"
     style="color-interpolation:linearRGB;fill:none;fill-rule:evenodd;stroke:#ff9b00;stroke-width:3.3333;stroke-linecap:butt;stroke-linejoin:round;color-rendering:optimizeQuality;image-rendering:optimizeQuality;text-rendering:geometricPrecision"
     id="path114" />
  <g
     id="g127"
     transform="translate(-18)">
    <path
       style="color-interpolation:sRGB;fill:#ffffff;stroke:none;stroke-width:0.722583;color-rendering:optimizeSpeed;image-rendering:optimizeSpeed;shape-rendering:crispEdges;text-rendering:optimizeSpeed"
       d="M 456.89347,47.610572 V 17.984685 H 294.31239 v 29.625887 z"
       id="path66" />
    <path
       style="font-size:18.6667px;color-interpolation:linearRGB;stroke:none;stroke-width:0.722583;color-rendering:optimizeQuality;image-rendering:optimizeQuality;text-rendering:geometricPrecision"
       d="m 333.38828,37.494415 h -1.20808 v -7.688712 q -0.429,0.417725 -1.14031,0.829814 -0.71124,0.412089 -1.27579,0.626623 v -1.174196 q 1.01616,-0.474159 1.77256,-1.151652 0.75647,-0.677349 1.0726,-1.309609 h 0.77902 z m 2.38279,0.169374 2.84517,-10.161318 h 0.971 l -2.84516,10.161318 z m 4.94218,-0.169374 v -6.175841 h -1.07261 v -0.948389 h 1.07261 v -0.7564 q 0,-0.71131 0.12414,-1.061329 0.16937,-0.474159 0.60971,-0.762108 0.44034,-0.287877 1.23063,-0.287877 0.50805,0 1.12904,0.112867 l -0.18065,1.06133 q -0.37256,-0.06778 -0.71131,-0.06778 -0.55321,0 -0.77902,0.231444 -0.2258,0.231515 -0.2258,0.875047 v 0.654805 h 1.38873 v 0.948389 h -1.38873 v 6.175841 z"
       id="path67" />
    <path
       style="font-size:14.9333px;color-interpolation:linearRGB;stroke:none;stroke-width:0.722583;color-rendering:optimizeQuality;image-rendering:optimizeQuality;text-rendering:geometricPrecision"
       d="m 348.90126,30.076671 v 0.914501 h -5.12585 q -0.0113,-0.338747 0.11294,-0.666149 0.19191,-0.51932 0.62662,-1.02744 0.43463,-0.508048 1.24754,-1.174197 1.26452,-1.03864 1.7105,-1.642719 0.44597,-0.604007 0.44597,-1.145944 0,-0.564554 -0.40645,-0.954026 -0.40645,-0.389544 -1.06133,-0.389544 -0.68869,0 -1.10078,0.412089 -0.41209,0.412089 -0.41209,1.146016 l -0.98228,-0.101667 q 0.10167,-1.095147 0.75647,-1.670973 0.65481,-0.575753 1.7613,-0.575753 1.11776,0 1.76693,0.620915 0.64917,0.620987 0.64917,1.535488 0,0.462958 -0.18628,0.914573 -0.18629,0.451614 -0.63226,0.948317 -0.44598,0.496848 -1.47335,1.366187 -0.85807,0.711238 -1.10085,0.970934 -0.24272,0.259696 -0.40082,0.519392 z"
       id="path68" />
    <path
       style="font-size:18.6667px;color-interpolation:linearRGB;stroke:none;stroke-width:0.722583;color-rendering:optimizeQuality;image-rendering:optimizeQuality;text-rendering:geometricPrecision"
       d="m 356.90307,40.384746 q -0.99355,-1.26452 -1.68224,-2.952401 -0.6887,-1.687952 -0.6887,-3.494409 0,-1.603194 0.50805,-3.059631 0.60964,-1.693589 1.86289,-3.375834 h 0.86934 q -0.81291,1.388731 -1.07253,1.987102 -0.40645,0.925773 -0.6436,1.930669 -0.29352,1.253175 -0.29352,2.517694 0,3.229077 2.00965,6.44681 z m 2.47947,-2.890331 v -6.175841 h -1.07253 v -0.948389 h 1.07253 v -0.7564 q 0,-0.71131 0.12421,-1.061329 0.16937,-0.474159 0.60972,-0.762108 0.44027,-0.287877 1.23063,-0.287877 0.50804,0 1.12903,0.112867 l -0.18064,1.06133 q -0.37257,-0.06778 -0.71131,-0.06778 -0.55321,0 -0.77902,0.231444 -0.22581,0.231515 -0.22581,0.875047 v 0.654805 h 1.38873 v 0.948389 h -1.38873 v 6.175841 z"
       id="path69" />
    <path
       style="font-size:14.9333px;color-interpolation:linearRGB;stroke:none;stroke-width:0.722583;color-rendering:optimizeQuality;image-rendering:optimizeQuality;text-rendering:geometricPrecision"
       d="m 362.68677,41.965395 0.99355,-0.09032 q 0.11286,0.733855 0.51939,1.100783 0.40638,0.366999 0.98221,0.366999 0.68869,0 1.16292,-0.519392 0.47423,-0.519392 0.47423,-1.366115 0,-0.824177 -0.45732,-1.292772 -0.45725,-0.468523 -1.20238,-0.468523 -0.46296,0 -0.82989,0.208827 -0.36692,0.208898 -0.58139,0.5363 l -0.89195,-0.112867 0.74513,-3.985549 h 3.86133 v 0.914573 h -3.09359 l -0.41773,2.077425 q 0.70004,-0.485503 1.46771,-0.485503 1.01617,0 1.7105,0.705674 0.6944,0.705602 0.6944,1.812092 0,1.049985 -0.60971,1.817729 -0.74513,0.94839 -2.03226,0.94839 -1.06126,0 -1.73305,-0.592735 -0.67178,-0.592734 -0.7621,-1.575013 z m 5.99028,-1.795184 q 0,-1.377387 0.28231,-2.212909 0.28224,-0.83545 0.84109,-1.292701 0.55891,-0.45725 1.40564,-0.45725 0.62098,0 1.09521,0.253988 0.47416,0.25406 0.77902,0.722583 0.30486,0.468594 0.47987,1.151652 0.17494,0.683057 0.17494,1.834637 0,1.366187 -0.28225,2.207273 -0.28224,0.841158 -0.84108,1.298409 -0.55892,0.45725 -1.40571,0.45725 -1.11769,0 -1.7613,-0.812906 -0.76774,-0.959661 -0.76774,-3.150026 z m 0.98228,0 q 0,1.908124 0.44597,2.540384 0.44598,0.632259 1.10079,0.632259 0.65487,0 1.10085,-0.632259 0.44598,-0.63226 0.44598,-2.540384 0,-1.919324 -0.44598,-2.545948 -0.44598,-0.626623 -1.11213,-0.626623 -0.6548,0 -1.04998,0.553209 -0.4855,0.71131 -0.4855,2.619362 z"
       id="path70" />
    <path
       style="font-size:18.6667px;color-interpolation:linearRGB;stroke:none;stroke-width:0.722583;color-rendering:optimizeQuality;image-rendering:optimizeQuality;text-rendering:geometricPrecision"
       d="m 381.76743,31.713755 h -6.48063 v -1.129036 h 6.48063 z m 0,2.980653 h -6.48063 v -1.117763 h 6.48063 z m 1.18864,-2.043536 q 0,-1.750023 0.3613,-2.811352 0.36129,-1.061257 1.06696,-1.637083 0.7056,-0.575754 1.7782,-0.575754 0.79037,0 1.38874,0.316058 0.59837,0.316202 0.98791,0.920209 0.38947,0.604006 0.60964,1.462073 0.22017,0.858067 0.22017,2.325849 0,1.727406 -0.35565,2.788663 -0.35566,1.061329 -1.06126,1.642791 -0.70567,0.581463 -1.78955,0.581463 -1.42254,0 -2.22418,-1.016168 -0.98228,-1.230631 -0.98228,-3.996749 z m 1.24198,0 q 0,2.416099 0.57012,3.217732 0.57019,0.801634 1.39436,0.801634 0.83553,0 1.40001,-0.80727 0.56455,-0.807269 0.56455,-3.212096 0,-2.427444 -0.56455,-3.229077 -0.56448,-0.801561 -1.41128,-0.801561 -0.83552,0 -1.32095,0.711238 -0.63226,0.891956 -0.63226,3.3194 z m 6.93275,4.843543 v -1.377387 h 1.37745 v 1.377387 z m 7.61797,0 h -1.20809 v -7.688712 q -0.429,0.417725 -1.14031,0.829814 -0.71131,0.412089 -1.27579,0.626623 v -1.174196 q 1.0161,-0.474159 1.77257,-1.151652 0.75647,-0.677349 1.0726,-1.309609 h 0.77902 z m 2.95861,-2.596817 1.20801,-0.158029 q 0.20327,1.02744 0.70568,1.479054 0.50241,0.451615 1.21372,0.451615 0.85807,0 1.44517,-0.592735 0.58709,-0.592734 0.58709,-1.462146 0,-0.824177 -0.54757,-1.366114 -0.54757,-0.541937 -1.38309,-0.541937 -0.33868,0 -0.8468,0.135484 l 0.13549,-1.061257 q 0.11294,0.01127 0.19199,0.01127 0.76774,0 1.38302,-0.400816 0.61535,-0.400817 0.61535,-1.236267 0,-0.666149 -0.44598,-1.100855 -0.44598,-0.434633 -1.15729,-0.434633 -0.69996,0 -1.16848,0.44027 -0.4686,0.440341 -0.60408,1.332297 l -1.20809,-0.214534 q 0.21454,-1.219359 0.99926,-1.885507 0.78465,-0.666077 1.95885,-0.666077 0.80163,0 1.47905,0.344311 0.67742,0.344382 1.03308,0.942753 0.35558,0.598371 0.35558,1.26452 0,0.643532 -0.33867,1.162924 -0.33875,0.51932 -1.01617,0.83545 0.88068,0.191918 1.36055,0.829886 0.4798,0.637896 0.4798,1.586286 0,1.287064 -0.93712,2.17902 -0.93705,0.891956 -2.37094,0.891956 -1.29841,0 -2.15084,-0.767744 -0.85243,-0.767744 -0.97657,-1.998447 z m 16.22169,-0.01127 1.18547,0.158101 q -0.19192,1.219358 -0.99355,1.913688 -0.80156,0.694401 -1.97576,0.694401 -1.45651,0 -2.34276,-0.954098 -0.88632,-0.954025 -0.88632,-2.737865 0,-1.151652 0.37828,-2.015355 0.3782,-0.863703 1.16285,-1.298409 0.78472,-0.434633 1.69922,-0.434633 1.16293,0 1.89678,0.587098 0.73386,0.587098 0.94839,1.670972 l -1.17419,0.180646 q -0.16938,-0.722583 -0.59837,-1.083874 -0.42907,-0.361291 -1.02744,-0.361291 -0.91451,0 -1.4847,0.654804 -0.57019,0.654877 -0.57019,2.066153 0,1.433893 0.55329,2.083061 0.55321,0.64924 1.43382,0.64924 0.71131,0 1.18554,-0.434705 0.47416,-0.434706 0.60964,-1.337934 z m 2.0887,5.340319 v -9.85646 h 1.10649 v 0.925845 q 0.38384,-0.541937 0.87497,-0.812906 0.49114,-0.270968 1.17984,-0.270968 0.91457,0 1.61454,0.468522 0.70003,0.468595 1.05569,1.32659 0.35558,0.858139 0.35558,1.874234 0,1.095147 -0.39511,1.970194 -0.39518,0.874975 -1.14038,1.337862 -0.74512,0.462958 -1.5693,0.462958 -0.60972,0 -1.08951,-0.25406 -0.47987,-0.25406 -0.78473,-0.637896 v 3.466085 z m 1.09522,-6.25482 q 0,1.377387 0.55884,2.032264 0.55885,0.654876 1.34921,0.654876 0.80163,0 1.37175,-0.677493 0.57019,-0.677349 0.57019,-2.111242 0,-1.354842 -0.55885,-2.032263 -0.55891,-0.677422 -1.33793,-0.677422 -0.76774,0 -1.36048,0.722583 -0.59273,0.722583 -0.59273,2.088697 z m 6.40215,3.52259 v -7.12423 h 1.08387 v 1.004823 q 0.32741,-0.51932 0.88625,-0.841086 0.55892,-0.321766 1.27016,-0.321766 0.79036,0 1.29841,0.327402 0.50804,0.327402 0.71131,0.925773 0.84679,-1.253175 2.20163,-1.253175 1.06126,0 1.63145,0.587098 0.57012,0.587098 0.57012,1.806457 v 4.888704 h -1.20802 v -4.482252 q 0,-0.722582 -0.11293,-1.044348 -0.11287,-0.321839 -0.42337,-0.513757 -0.31049,-0.191918 -0.72821,-0.191918 -0.7452,0 -1.24198,0.496776 -0.49678,0.496776 -0.49678,1.603194 v 4.132305 h -1.20808 v -4.629008 q 0,-0.801633 -0.29351,-1.20245 -0.29359,-0.400817 -0.97101,-0.400817 -0.50805,0 -0.94275,0.265333 -0.43464,0.265332 -0.62656,0.784652 -0.19199,0.519393 -0.19199,1.490327 v 3.691963 z m 11.22951,0 v -7.12423 h 1.08388 v 1.004823 q 0.3274,-0.51932 0.88624,-0.841086 0.55892,-0.321766 1.27016,-0.321766 0.79036,0 1.29841,0.327402 0.50805,0.327402 0.71131,0.925773 0.84679,-1.253175 2.20164,-1.253175 1.06125,0 1.63144,0.587098 0.57012,0.587098 0.57012,1.806457 v 4.888704 h -1.20801 v -4.482252 q 0,-0.722582 -0.11294,-1.044348 -0.11287,-0.321839 -0.42336,-0.513757 -0.3105,-0.191918 -0.72822,-0.191918 -0.7452,0 -1.24198,0.496776 -0.49677,0.496776 -0.49677,1.603194 v 4.132305 h -1.20809 v -4.629008 q 0,-0.801633 -0.29351,-1.20245 -0.29359,-0.400817 -0.97101,-0.400817 -0.50805,0 -0.94275,0.265333 -0.43464,0.265332 -0.62655,0.784652 -0.19199,0.519393 -0.19199,1.490327 v 3.691963 z m 12.0198,2.890331 h -0.85806 q 1.99837,-3.217733 1.99837,-6.44681 0,-1.253175 -0.28224,-2.49515 -0.23708,-1.004823 -0.64353,-1.930668 -0.2597,-0.609643 -1.0726,-2.009647 h 0.85806 q 1.26452,1.682245 1.86289,3.375834 0.5194,1.456437 0.5194,3.059631 0,1.806457 -0.69433,3.494409 -0.69441,1.687881 -1.68796,2.952401 z"
       id="path71" />
    <line
       y2="32.79763"
       style="color-interpolation:linearRGB;fill:none;stroke:#ff9b00;stroke-width:2.667;stroke-linecap:butt;stroke-linejoin:round;stroke-dasharray:none;color-rendering:optimizeQuality;image-rendering:optimizeQuality;text-rendering:geometricPrecision"
       x1="311.20273"
       x2="325.20273"
       y1="32.79763"
       id="line72" />
    <path
       d="M 305.79102,47.656329 V 17.938928 h 151.14821 v 29.717401 z"
       style="color-interpolation:linearRGB;fill:none;fill-rule:evenodd;stroke:#262626;stroke-width:2.667;stroke-linecap:butt;stroke-dasharray:none;color-rendering:optimizeQuality;image-rendering:optimizeQuality;text-rendering:geometricPrecision"
       id="path73" />
  </g>
  <path
     style="color-interpolation:sRGB;fill:#ffffff;stroke:none;stroke-width:0.722583;color-rendering:optimizeSpeed;image-rendering:optimizeSpeed;shape-rendering:crispEdges;text-rendering:optimizeSpeed"
     d="M 878.44272,48.333154 V 18.707268 H 736.09395 v 29.625886 z"
     id="path115" />
  <path
     style="font-size:18.6667px;color-interpolation:linearRGB;stroke:none;stroke-width:0.722583;color-rendering:optimizeQuality;image-rendering:optimizeQuality;text-rendering:geometricPrecision"
     d="m 775.16985,38.216998 h -1.20809 v -7.688712 q -0.429,0.417725 -1.14031,0.829813 -0.71124,0.412089 -1.27579,0.626624 v -1.174197 q 1.01617,-0.474158 1.77257,-1.151652 0.75647,-0.677349 1.0726,-1.309608 h 0.77902 z m 2.38278,0.169373 2.84517,-10.161317 h 0.97101 l -2.84517,10.161317 z m 4.94218,-0.169373 v -6.175841 h -1.0726 v -0.94839 h 1.0726 v -0.756399 q 0,-0.711311 0.12414,-1.06133 0.16937,-0.474158 0.60972,-0.762107 0.44034,-0.287877 1.23063,-0.287877 0.50804,0 1.12903,0.112867 l -0.18064,1.061329 q -0.37257,-0.06778 -0.71131,-0.06778 -0.55321,0 -0.77902,0.231443 -0.22581,0.231516 -0.22581,0.875048 v 0.654804 h 1.38873 v 0.94839 h -1.38873 v 6.175841 z"
     id="path116" />
  <path
     style="font-size:14.9333px;color-interpolation:linearRGB;stroke:none;stroke-width:0.722583;color-rendering:optimizeQuality;image-rendering:optimizeQuality;text-rendering:geometricPrecision"
     d="m 790.68283,30.799254 v 0.914501 h -5.12586 q -0.0113,-0.338747 0.11294,-0.666149 0.19192,-0.51932 0.62662,-1.02744 0.43464,-0.508048 1.24754,-1.174197 1.26452,-1.03864 1.7105,-1.642719 0.44598,-0.604007 0.44598,-1.145944 0,-0.564554 -0.40645,-0.954026 -0.40646,-0.389544 -1.06133,-0.389544 -0.6887,0 -1.10079,0.412089 -0.41208,0.412088 -0.41208,1.146016 l -0.98228,-0.101668 q 0.10166,-1.095146 0.75647,-1.670972 0.6548,-0.575754 1.76129,-0.575754 1.11777,0 1.76693,0.620915 0.64917,0.620988 0.64917,1.535488 0,0.462959 -0.18628,0.914573 -0.18628,0.451614 -0.63226,0.948318 -0.44598,0.496847 -1.47334,1.366186 -0.85807,0.711239 -1.10086,0.970935 -0.24271,0.259696 -0.40082,0.519392 z"
     id="path117" />
  <path
     style="font-size:18.6667px;color-interpolation:linearRGB;stroke:none;stroke-width:0.722583;color-rendering:optimizeQuality;image-rendering:optimizeQuality;text-rendering:geometricPrecision"
     d="m 798.68463,41.107328 q -0.99355,-1.264519 -1.68224,-2.9524 -0.68869,-1.687953 -0.68869,-3.494409 0,-1.603194 0.50804,-3.059632 0.60965,-1.693589 1.86289,-3.375833 h 0.86934 q -0.8129,1.388731 -1.07253,1.987102 -0.40645,0.925773 -0.6436,1.930668 -0.29351,1.253175 -0.29351,2.517695 0,3.229077 2.00964,6.446809 z"
     id="path118" />
  <path
     style="font-size:18.6667px;font-family:mwb_cmmi10;color-interpolation:linearRGB;stroke:none;stroke-width:0.722583;color-rendering:optimizeQuality;image-rendering:optimizeQuality;text-rendering:geometricPrecision"
     d="m 802.53766,38.013808 q 0,-0.101668 0.0226,-0.146829 l 1.44516,-4.719332 h -1.24197 q -0.50805,0 -0.94275,0.31613 -0.43464,0.31613 -0.71688,0.801561 -0.0339,0.04523 -0.0791,0.04523 h -0.16937 q -0.12421,0 -0.12421,-0.124212 0,-0.03389 0.0226,-0.09032 0.45162,-0.756472 0.9653,-1.275864 0.51368,-0.51932 1.15729,-0.51932 h 4.21128 q 0.14676,0 0.24843,0.101595 0.10159,0.101667 0.10159,0.248424 0,0.191918 -0.14683,0.344311 -0.14675,0.152464 -0.34994,0.152464 h -2.48388 l -0.92585,4.741949 q -0.0452,0.214535 -0.19755,0.361291 -0.15239,0.146757 -0.37827,0.146757 -0.1693,0 -0.29352,-0.112868 -0.12421,-0.11294 -0.12421,-0.270968 z"
     id="path119" />
  <path
     style="font-size:18.6667px;color-interpolation:linearRGB;stroke:none;stroke-width:0.722583;color-rendering:optimizeQuality;image-rendering:optimizeQuality;text-rendering:geometricPrecision"
     d="m 817.76833,32.436337 h -6.48063 v -1.129035 h 6.48063 z m 0,2.980653 h -6.48063 v -1.117763 h 6.48063 z m 5.73868,2.800008 h -1.20809 v -7.688712 q -0.42899,0.417725 -1.1403,0.829813 -0.71132,0.412089 -1.2758,0.626624 v -1.174197 q 1.0161,-0.474158 1.77257,-1.151652 0.75647,-0.677349 1.0726,-1.309608 h 0.77902 z m 3.62469,0 v -1.377387 h 1.37746 v 1.377387 z m 7.61797,0 h -1.20808 v -7.688712 q -0.429,0.417725 -1.14031,0.829813 -0.71131,0.412089 -1.27579,0.626624 v -1.174197 q 1.01609,-0.474158 1.77256,-1.151652 0.75647,-0.677349 1.0726,-1.309608 h 0.77902 z m 3.13926,-2.269343 1.15158,-0.11294 q 0.14676,0.82425 0.56455,1.191178 0.41773,0.366927 1.07253,0.366927 0.55329,0 0.97101,-0.25406 0.41773,-0.25406 0.68869,-0.683057 0.27097,-0.428997 0.45162,-1.15158 0.18064,-0.722583 0.18064,-1.467782 0,-0.07905 -0.0113,-0.248352 -0.36129,0.575754 -0.98791,0.937045 -0.62663,0.361292 -1.36048,0.361292 -1.21936,0 -2.06615,-0.886248 -0.8468,-0.88632 -0.8468,-2.331485 0,-1.501599 0.88632,-2.410463 0.88632,-0.908864 2.20727,-0.908864 0.95967,0 1.75566,0.513684 0.79593,0.513683 1.20809,1.473418 0.41209,0.959662 0.41209,2.766118 0,1.885435 -0.41209,3.003198 -0.41216,1.117763 -1.21936,1.699225 -0.80727,0.581462 -1.89114,0.581462 -1.15165,0 -1.87987,-0.643532 -0.72822,-0.643604 -0.87498,-1.795184 z m 4.93387,-4.335496 q 0,-1.038712 -0.55321,-1.654063 -0.55328,-0.615279 -1.3323,-0.615279 -0.80163,0 -1.4,0.66044 -0.59837,0.660513 -0.59837,1.699225 0,0.94839 0.57019,1.529852 0.57011,0.58139 1.39429,0.58139 0.8468,0 1.3831,-0.58139 0.5363,-0.581462 0.5363,-1.620175 z m 6.45555,6.604839 v -7.124231 h 1.08387 v 1.004823 q 0.32741,-0.51932 0.88632,-0.841086 0.55885,-0.321766 1.27016,-0.321766 0.79029,0 1.29841,0.327402 0.50805,0.327403 0.71124,0.925773 0.84679,-1.253175 2.20163,-1.253175 1.06133,0 1.63145,0.587099 0.57019,0.587098 0.57019,1.806456 v 4.888705 h -1.20809 v -4.482252 q 0,-0.722583 -0.11286,-1.044349 -0.11294,-0.321838 -0.42344,-0.513756 -0.31049,-0.191918 -0.72822,-0.191918 -0.74512,0 -1.2419,0.496776 -0.49677,0.496775 -0.49677,1.603194 v 4.132305 h -1.20809 v -4.629009 q 0,-0.801633 -0.29358,-1.202449 -0.29352,-0.400817 -0.97094,-0.400817 -0.50805,0 -0.94275,0.265332 -0.43471,0.265333 -0.62663,0.784653 -0.19191,0.519392 -0.19191,1.490326 v 3.691964 z m 11.22951,0 v -7.124231 h 1.08388 v 1.004823 q 0.3274,-0.51932 0.88632,-0.841086 0.55884,-0.321766 1.27015,-0.321766 0.79029,0 1.29841,0.327402 0.50805,0.327403 0.71124,0.925773 0.84679,-1.253175 2.20163,-1.253175 1.06133,0 1.63145,0.587099 0.57019,0.587098 0.57019,1.806456 v 4.888705 h -1.20808 v -4.482252 q 0,-0.722583 -0.11287,-1.044349 -0.11294,-0.321838 -0.42344,-0.513756 -0.31049,-0.191918 -0.72821,-0.191918 -0.74513,0 -1.24191,0.496776 -0.49677,0.496775 -0.49677,1.603194 v 4.132305 h -1.20809 v -4.629009 q 0,-0.801633 -0.29358,-1.202449 -0.29352,-0.400817 -0.97094,-0.400817 -0.50805,0 -0.94275,0.265332 -0.43471,0.265333 -0.62662,0.784653 -0.19192,0.519392 -0.19192,1.490326 v 3.691964 z m 12.01987,2.89033 h -0.85806 q 1.99837,-3.217732 1.99837,-6.446809 0,-1.253175 -0.28224,-2.49515 -0.23715,-1.004824 -0.6436,-1.930669 -0.25963,-0.609643 -1.07253,-2.009646 h 0.85806 q 1.26452,1.682244 1.86289,3.375833 0.51932,1.456438 0.51932,3.059632 0,1.806456 -0.69433,3.494409 -0.69432,1.687881 -1.68788,2.9524 z"
     id="path120" />
  <line
     y2="33.52021"
     style="color-interpolation:linearRGB;fill:none;stroke:#ff9b00;stroke-width:2.667;stroke-linecap:butt;stroke-linejoin:round;stroke-dasharray:none;color-rendering:optimizeQuality;image-rendering:optimizeQuality;text-rendering:geometricPrecision"
     x1="753.284"
     x2="767.284"
     y1="33.52021"
     id="line121" />
  <path
     d="M 747.32296,48.384369 V 18.656053 h 131.17098 v 29.728316 z"
     style="color-interpolation:linearRGB;fill:none;fill-rule:evenodd;stroke:#262626;stroke-width:2.667;stroke-linecap:butt;stroke-dasharray:none;color-rendering:optimizeQuality;image-rendering:optimizeQuality;text-rendering:geometricPrecision"
     id="path122" />
</svg>
